<?xml version="1.0" encoding="utf-8"?>
<!-- Generator: Adobe Illustrator 19.2.0, SVG Export Plug-In . SVG Version: 6.00 Build 0)  -->
<svg version="1.1" id="Layer_1" xmlns="http://www.w3.org/2000/svg" xmlns:xlink="http://www.w3.org/1999/xlink" x="0px" y="0px"
	 viewBox="0 0 400 349.3" style="enable-background:new 0 0 400 349.3;" xml:space="preserve">
<style type="text/css">
	.st0{enable-background:new    ;}
	.st1{fill:#333333;}
	.st2{fill:none;stroke:#E6E7E8;stroke-width:2;stroke-miterlimit:10;}
	.st3{fill:none;stroke:#F37466;stroke-width:3;stroke-miterlimit:10;}
	.st4{fill:#949493;}
</style>
<g>
	<g class="st0">
		<path class="st1" d="M334.9,90.7h1.8v7.8h-1.8V90.7z"/>
		<path class="st1" d="M345.3,94.6c0,0.7-0.1,1.3-0.3,1.8s-0.5,0.9-0.9,1.2c-0.4,0.3-0.9,0.6-1.4,0.7c-0.6,0.2-1.2,0.2-1.9,0.2
			c-0.3,0-0.7,0-1.1,0c-0.4,0-0.8-0.1-1.2-0.2v-7.6c0.4-0.1,0.8-0.1,1.3-0.2c0.4,0,0.8,0,1.1,0c0.7,0,1.3,0.1,1.8,0.2
			c0.5,0.2,1,0.4,1.4,0.7c0.4,0.3,0.7,0.7,0.9,1.2S345.3,93.9,345.3,94.6z M340.2,97.1c0.1,0,0.2,0,0.3,0c0.1,0,0.2,0,0.4,0
			c0.9,0,1.5-0.2,2-0.7c0.4-0.4,0.6-1.1,0.6-1.8c0-0.8-0.2-1.4-0.6-1.9c-0.4-0.4-1-0.6-1.9-0.6c-0.1,0-0.2,0-0.4,0
			c-0.1,0-0.2,0-0.4,0V97.1z"/>
		<path class="st1" d="M346.8,98.5v-7.8h5.3v1.5h-3.5v1.5h3.1v1.4h-3.1V97h3.8v1.5H346.8z"/>
		<path class="st1" d="M358.8,98.5c-0.5-0.9-1-1.8-1.6-2.6c-0.6-0.9-1.2-1.7-1.9-2.5v5.1h-1.7v-7.8h1.4c0.2,0.2,0.5,0.6,0.8,0.9
			c0.3,0.4,0.6,0.7,0.9,1.2c0.3,0.4,0.6,0.8,0.9,1.3c0.3,0.4,0.6,0.9,0.9,1.3v-4.6h1.7v7.8H358.8z"/>
		<path class="st1" d="M367.8,90.7v1.5h-2.3v6.3h-1.8v-6.3h-2.3v-1.5H367.8z"/>
		<path class="st1" d="M369,90.7h1.8v7.8H369V90.7z"/>
		<path class="st1" d="M379.3,94.6c0,0.7-0.1,1.3-0.3,1.8s-0.5,0.9-0.9,1.2c-0.4,0.3-0.9,0.6-1.4,0.7c-0.6,0.2-1.2,0.2-1.9,0.2
			c-0.3,0-0.7,0-1.1,0c-0.4,0-0.8-0.1-1.2-0.2v-7.6c0.4-0.1,0.8-0.1,1.3-0.2c0.4,0,0.8,0,1.1,0c0.7,0,1.3,0.1,1.8,0.2
			c0.5,0.2,1,0.4,1.4,0.7c0.4,0.3,0.7,0.7,0.9,1.2S379.3,93.9,379.3,94.6z M374.3,97.1c0.1,0,0.2,0,0.3,0c0.1,0,0.2,0,0.4,0
			c0.9,0,1.5-0.2,2-0.7c0.4-0.4,0.6-1.1,0.6-1.8c0-0.8-0.2-1.4-0.6-1.9c-0.4-0.4-1-0.6-1.9-0.6c-0.1,0-0.2,0-0.4,0
			c-0.1,0-0.2,0-0.4,0V97.1z"/>
		<path class="st1" d="M385.8,98.5c-0.1-0.3-0.2-0.5-0.3-0.8c-0.1-0.3-0.2-0.6-0.3-0.9h-3c-0.1,0.3-0.2,0.6-0.3,0.9
			c-0.1,0.3-0.2,0.6-0.3,0.8h-1.8c0.3-0.8,0.6-1.6,0.8-2.3c0.3-0.7,0.5-1.4,0.8-2c0.3-0.6,0.5-1.2,0.7-1.8c0.2-0.6,0.5-1.1,0.8-1.7
			h1.7c0.3,0.5,0.5,1.1,0.8,1.7c0.2,0.6,0.5,1.2,0.8,1.8c0.3,0.6,0.5,1.3,0.8,2s0.5,1.5,0.8,2.3H385.8z M383.6,92.5
			c0,0.1-0.1,0.3-0.2,0.5s-0.2,0.4-0.3,0.7c-0.1,0.3-0.2,0.5-0.3,0.8s-0.2,0.6-0.4,1h2.2c-0.1-0.3-0.2-0.7-0.3-1s-0.2-0.6-0.3-0.8
			c-0.1-0.3-0.2-0.5-0.3-0.7C383.8,92.7,383.7,92.6,383.6,92.5z"/>
		<path class="st1" d="M395.5,94.6c0,0.7-0.1,1.3-0.3,1.8s-0.5,0.9-0.9,1.2c-0.4,0.3-0.9,0.6-1.4,0.7c-0.6,0.2-1.2,0.2-1.9,0.2
			c-0.3,0-0.7,0-1.1,0c-0.4,0-0.8-0.1-1.2-0.2v-7.6c0.4-0.1,0.8-0.1,1.3-0.2c0.4,0,0.8,0,1.1,0c0.7,0,1.3,0.1,1.8,0.2
			c0.5,0.2,1,0.4,1.4,0.7c0.4,0.3,0.7,0.7,0.9,1.2S395.5,93.9,395.5,94.6z M390.4,97.1c0.1,0,0.2,0,0.3,0c0.1,0,0.2,0,0.4,0
			c0.9,0,1.5-0.2,2-0.7c0.4-0.4,0.6-1.1,0.6-1.8c0-0.8-0.2-1.4-0.6-1.9c-0.4-0.4-1-0.6-1.9-0.6c-0.1,0-0.2,0-0.4,0
			c-0.1,0-0.2,0-0.4,0V97.1z"/>
	</g>
	<g class="st0">
		<path class="st1" d="M348.1,109.7c-0.3-0.7-0.6-1.3-0.9-2c-0.3-0.7-0.6-1.4-0.9-2.1s-0.5-1.3-0.7-2s-0.4-1.2-0.6-1.7h1.9
			c0.1,0.5,0.3,0.9,0.5,1.5c0.2,0.5,0.4,1,0.5,1.6c0.2,0.5,0.4,1,0.5,1.5c0.2,0.5,0.3,0.9,0.5,1.2c0.1-0.3,0.3-0.7,0.5-1.2
			c0.2-0.5,0.4-1,0.5-1.5c0.2-0.5,0.4-1,0.5-1.6c0.2-0.5,0.3-1,0.5-1.5h1.9c-0.2,0.5-0.4,1.1-0.6,1.7c-0.2,0.6-0.5,1.3-0.7,2
			s-0.6,1.4-0.9,2.1c-0.3,0.7-0.6,1.4-0.9,2H348.1z"/>
		<path class="st1" d="M353.8,101.9h1.8v7.8h-1.8V101.9z"/>
		<path class="st1" d="M359.5,108.4c0.2,0,0.5,0,0.6-0.1s0.3-0.1,0.4-0.2c0.1-0.1,0.2-0.2,0.2-0.3c0-0.1,0.1-0.2,0.1-0.3
			c0-0.3-0.1-0.5-0.4-0.6c-0.2-0.2-0.7-0.3-1.2-0.5c-0.3-0.1-0.5-0.2-0.8-0.3s-0.5-0.3-0.7-0.4s-0.4-0.4-0.5-0.6
			c-0.1-0.3-0.2-0.6-0.2-0.9s0.1-0.7,0.2-1c0.1-0.3,0.3-0.5,0.6-0.7c0.2-0.2,0.5-0.4,0.9-0.5s0.7-0.2,1.2-0.2c0.5,0,1,0.1,1.4,0.2
			c0.4,0.1,0.7,0.2,0.9,0.4l-0.5,1.4c-0.2-0.1-0.5-0.2-0.7-0.3s-0.6-0.1-1-0.1c-0.4,0-0.7,0.1-0.9,0.2s-0.3,0.3-0.3,0.5
			c0,0.1,0,0.3,0.1,0.4s0.2,0.2,0.3,0.3c0.1,0.1,0.3,0.1,0.4,0.2s0.3,0.1,0.5,0.2c0.4,0.1,0.8,0.3,1.1,0.4c0.3,0.1,0.5,0.3,0.7,0.5
			s0.3,0.4,0.4,0.7c0.1,0.3,0.1,0.6,0.1,1c0,0.7-0.3,1.3-0.8,1.7c-0.5,0.4-1.3,0.6-2.3,0.6c-0.3,0-0.7,0-0.9-0.1s-0.5-0.1-0.7-0.2
			c-0.2-0.1-0.4-0.1-0.6-0.2s-0.3-0.1-0.4-0.2l0.5-1.4c0.2,0.1,0.5,0.2,0.9,0.3S359,108.4,359.5,108.4z"/>
		<path class="st1" d="M367,109.9c-0.5,0-1-0.1-1.4-0.2c-0.4-0.2-0.7-0.4-1-0.6c-0.3-0.3-0.5-0.6-0.6-1c-0.1-0.4-0.2-0.8-0.2-1.3
			v-4.8h1.8v4.7c0,0.3,0,0.6,0.1,0.8s0.2,0.4,0.3,0.5s0.3,0.2,0.4,0.3c0.2,0.1,0.4,0.1,0.6,0.1c0.4,0,0.8-0.1,1-0.4
			c0.3-0.3,0.4-0.7,0.4-1.3v-4.7h1.8v4.8c0,0.5-0.1,0.9-0.2,1.3c-0.1,0.4-0.3,0.7-0.6,1c-0.3,0.3-0.6,0.5-1,0.6
			C368,109.8,367.5,109.9,367,109.9z"/>
		<path class="st1" d="M376.9,109.7c-0.1-0.3-0.2-0.5-0.3-0.8c-0.1-0.3-0.2-0.6-0.3-0.9h-3c-0.1,0.3-0.2,0.6-0.3,0.9
			c-0.1,0.3-0.2,0.6-0.3,0.8h-1.8c0.3-0.8,0.6-1.6,0.8-2.3c0.3-0.7,0.5-1.4,0.8-2c0.3-0.6,0.5-1.2,0.7-1.8c0.2-0.6,0.5-1.1,0.8-1.7
			h1.7c0.3,0.5,0.5,1.1,0.8,1.7c0.2,0.6,0.5,1.2,0.8,1.8c0.3,0.6,0.5,1.3,0.8,2s0.5,1.5,0.8,2.3H376.9z M374.8,103.7
			c0,0.1-0.1,0.3-0.2,0.5s-0.2,0.4-0.3,0.7c-0.1,0.3-0.2,0.5-0.3,0.8s-0.2,0.6-0.4,1h2.2c-0.1-0.3-0.2-0.7-0.3-1s-0.2-0.6-0.3-0.8
			c-0.1-0.3-0.2-0.5-0.3-0.7C374.9,104,374.8,103.8,374.8,103.7z"/>
		<path class="st1" d="M385,108.2v1.5h-5.2v-7.8h1.8v6.3H385z"/>
	</g>
</g>
<g>
	<g class="st0">
		<path class="st1" d="M343.8,242.8c0.1,0.3,0.2,0.7,0.3,1s0.2,0.8,0.3,1.2c0.1,0.4,0.2,0.8,0.4,1.2c0.1,0.4,0.3,0.8,0.4,1.1
			c0.1-0.4,0.2-0.8,0.3-1.2s0.2-0.9,0.3-1.4c0.1-0.5,0.2-1,0.3-1.4c0.1-0.5,0.2-0.9,0.2-1.4h1.8c-0.3,1.3-0.6,2.6-0.9,4
			s-0.7,2.6-1.1,3.8h-1.6c-0.3-0.7-0.5-1.5-0.8-2.3c-0.2-0.8-0.5-1.6-0.7-2.4c-0.2,0.8-0.5,1.6-0.7,2.4c-0.2,0.8-0.5,1.5-0.8,2.3
			H340c-0.4-1.2-0.8-2.5-1.1-3.8c-0.3-1.3-0.6-2.7-0.9-4h1.9c0.1,0.4,0.2,0.9,0.2,1.4c0.1,0.5,0.2,1,0.3,1.4
			c0.1,0.5,0.2,0.9,0.3,1.4c0.1,0.4,0.2,0.9,0.3,1.2c0.1-0.4,0.3-0.8,0.4-1.2s0.3-0.8,0.4-1.2s0.2-0.8,0.3-1.2
			c0.1-0.4,0.2-0.7,0.3-1H343.8z"/>
		<path class="st1" d="M349.3,249.8V242h5.3v1.5H351v1.5h3.1v1.4H351v1.9h3.8v1.5H349.3z"/>
		<path class="st1" d="M358.7,249.9c-0.4,0-0.9,0-1.3,0c-0.4,0-0.9-0.1-1.3-0.2v-7.6c0.4-0.1,0.8-0.1,1.2-0.2c0.4,0,0.8-0.1,1.2-0.1
			c0.5,0,1,0,1.4,0.1c0.4,0.1,0.8,0.2,1.1,0.4c0.3,0.2,0.5,0.4,0.7,0.7c0.2,0.3,0.3,0.6,0.3,1c0,0.6-0.3,1.1-0.9,1.5
			c0.5,0.2,0.8,0.4,1,0.8s0.3,0.7,0.3,1.1c0,0.8-0.3,1.4-0.9,1.8S359.8,249.9,358.7,249.9z M357.8,245.1h0.9c0.5,0,0.9-0.1,1.2-0.2
			c0.2-0.1,0.3-0.4,0.3-0.7c0-0.3-0.1-0.5-0.4-0.7c-0.2-0.1-0.6-0.2-1.1-0.2c-0.1,0-0.3,0-0.5,0c-0.2,0-0.3,0-0.5,0V245.1z
			 M357.8,246.4v2c0.1,0,0.3,0,0.4,0c0.2,0,0.3,0,0.5,0c0.5,0,0.9-0.1,1.3-0.2s0.5-0.4,0.5-0.8c0-0.4-0.1-0.6-0.4-0.8
			c-0.3-0.2-0.7-0.2-1.2-0.2H357.8z"/>
	</g>
</g>
<g>
	<g class="st0">
		<path class="st1" d="M162.5,334.2h1.8v7.8h-1.8V334.2z"/>
		<path class="st1" d="M171.3,340.4v1.5h-5.2v-7.8h1.8v6.3H171.3z"/>
		<path class="st1" d="M175.3,342.1c-0.5,0-1-0.1-1.4-0.2s-0.7-0.4-1-0.6s-0.4-0.6-0.6-1c-0.1-0.4-0.2-0.8-0.2-1.3v-4.8h1.8v4.7
			c0,0.3,0,0.6,0.1,0.8s0.2,0.4,0.3,0.5c0.1,0.1,0.3,0.2,0.4,0.3c0.2,0.1,0.4,0.1,0.6,0.1c0.4,0,0.8-0.1,1-0.4
			c0.3-0.3,0.4-0.7,0.4-1.3v-4.7h1.8v4.8c0,0.5-0.1,0.9-0.2,1.3c-0.1,0.4-0.3,0.7-0.6,1c-0.3,0.3-0.6,0.5-1,0.6
			S175.9,342.1,175.3,342.1z"/>
		<path class="st1" d="M182.4,340.6c0.2,0,0.5,0,0.6-0.1s0.3-0.1,0.4-0.2c0.1-0.1,0.2-0.2,0.2-0.3c0-0.1,0.1-0.2,0.1-0.3
			c0-0.3-0.1-0.5-0.4-0.6c-0.2-0.2-0.7-0.3-1.2-0.5c-0.3-0.1-0.5-0.2-0.8-0.3s-0.5-0.3-0.7-0.4s-0.4-0.4-0.5-0.6s-0.2-0.6-0.2-0.9
			s0.1-0.7,0.2-1c0.1-0.3,0.3-0.5,0.6-0.7c0.2-0.2,0.5-0.4,0.9-0.5c0.4-0.1,0.7-0.2,1.2-0.2c0.5,0,1,0.1,1.4,0.2
			c0.4,0.1,0.7,0.2,0.9,0.4l-0.5,1.4c-0.2-0.1-0.5-0.2-0.7-0.3c-0.3-0.1-0.6-0.1-1-0.1c-0.4,0-0.7,0.1-0.9,0.2s-0.3,0.3-0.3,0.5
			c0,0.1,0,0.3,0.1,0.4s0.2,0.2,0.3,0.3c0.1,0.1,0.3,0.1,0.4,0.2s0.3,0.1,0.5,0.2c0.4,0.1,0.8,0.3,1.1,0.4c0.3,0.1,0.5,0.3,0.7,0.5
			c0.2,0.2,0.3,0.4,0.4,0.7c0.1,0.3,0.1,0.6,0.1,1c0,0.7-0.3,1.3-0.8,1.7c-0.5,0.4-1.3,0.6-2.3,0.6c-0.3,0-0.7,0-0.9-0.1
			c-0.3,0-0.5-0.1-0.7-0.2c-0.2-0.1-0.4-0.1-0.6-0.2c-0.2-0.1-0.3-0.1-0.4-0.2l0.5-1.4c0.2,0.1,0.5,0.2,0.9,0.3
			C181.5,340.6,181.9,340.6,182.4,340.6z"/>
		<path class="st1" d="M192.3,334.2v1.5H190v6.3h-1.8v-6.3h-2.3v-1.5H192.3z"/>
		<path class="st1" d="M195.7,334.1c1.2,0,2.1,0.2,2.7,0.6c0.6,0.4,0.9,1.1,0.9,1.9c0,0.5-0.1,1-0.4,1.3s-0.6,0.6-1.1,0.8
			c0.2,0.2,0.3,0.4,0.5,0.7c0.2,0.3,0.3,0.5,0.5,0.8c0.2,0.3,0.3,0.6,0.5,0.9c0.2,0.3,0.3,0.6,0.4,0.9h-2c-0.1-0.3-0.3-0.5-0.4-0.8
			s-0.3-0.5-0.5-0.8s-0.3-0.5-0.5-0.7s-0.3-0.4-0.5-0.6h-0.9v2.8h-1.8v-7.7c0.4-0.1,0.8-0.1,1.2-0.2
			C195.1,334.1,195.4,334.1,195.7,334.1z M195.8,335.6c-0.1,0-0.2,0-0.3,0c-0.1,0-0.2,0-0.3,0v2.1h0.5c0.7,0,1.1-0.1,1.4-0.2
			c0.3-0.2,0.4-0.4,0.4-0.8c0-0.4-0.1-0.7-0.4-0.8S196.4,335.6,195.8,335.6z"/>
		<path class="st1" d="M206.5,341.9c-0.1-0.3-0.2-0.5-0.3-0.8c-0.1-0.3-0.2-0.6-0.3-0.9h-3c-0.1,0.3-0.2,0.6-0.3,0.9
			c-0.1,0.3-0.2,0.6-0.3,0.8h-1.8c0.3-0.8,0.6-1.6,0.8-2.3c0.3-0.7,0.5-1.4,0.8-2c0.3-0.6,0.5-1.2,0.7-1.8c0.2-0.6,0.5-1.1,0.8-1.7
			h1.7c0.3,0.5,0.5,1.1,0.8,1.7c0.2,0.6,0.5,1.2,0.8,1.8c0.3,0.6,0.5,1.3,0.8,2s0.5,1.5,0.8,2.3H206.5z M204.4,335.9
			c0,0.1-0.1,0.3-0.2,0.5s-0.2,0.4-0.3,0.7c-0.1,0.3-0.2,0.5-0.3,0.8s-0.2,0.6-0.4,1h2.2c-0.1-0.3-0.2-0.7-0.3-1s-0.2-0.6-0.3-0.8
			c-0.1-0.3-0.2-0.5-0.3-0.7C204.5,336.2,204.5,336,204.4,335.9z"/>
		<path class="st1" d="M212.7,342.1c-1.3,0-2.2-0.4-2.9-1.1c-0.7-0.7-1-1.7-1-3c0-0.6,0.1-1.2,0.3-1.7c0.2-0.5,0.5-0.9,0.8-1.3
			c0.4-0.3,0.8-0.6,1.3-0.8s1-0.3,1.6-0.3c0.3,0,0.6,0,0.9,0.1s0.5,0.1,0.7,0.2c0.2,0.1,0.4,0.1,0.5,0.2s0.2,0.1,0.3,0.2l-0.5,1.4
			c-0.2-0.1-0.5-0.2-0.8-0.3c-0.3-0.1-0.7-0.1-1.1-0.1c-0.3,0-0.5,0-0.8,0.1c-0.3,0.1-0.5,0.2-0.7,0.4c-0.2,0.2-0.4,0.5-0.5,0.8
			c-0.1,0.3-0.2,0.7-0.2,1.1c0,0.4,0,0.7,0.1,1s0.2,0.6,0.4,0.8c0.2,0.2,0.4,0.4,0.7,0.5c0.3,0.1,0.6,0.2,1,0.2c0.3,0,0.5,0,0.7,0
			s0.4-0.1,0.5-0.1c0.2,0,0.3-0.1,0.4-0.1c0.1-0.1,0.2-0.1,0.3-0.1l0.5,1.4c-0.2,0.1-0.6,0.3-1,0.4
			C213.8,342,213.3,342.1,212.7,342.1z"/>
		<path class="st1" d="M216.4,334.2h1.8v7.8h-1.8V334.2z"/>
		<path class="st1" d="M227.4,338c0,0.7-0.1,1.3-0.3,1.8c-0.2,0.5-0.5,0.9-0.8,1.3s-0.8,0.6-1.2,0.8c-0.5,0.2-1,0.3-1.5,0.3
			c-0.5,0-1-0.1-1.5-0.3c-0.5-0.2-0.9-0.4-1.2-0.8s-0.6-0.8-0.8-1.3c-0.2-0.5-0.3-1.1-0.3-1.8s0.1-1.3,0.3-1.8s0.5-0.9,0.8-1.3
			c0.4-0.3,0.8-0.6,1.2-0.8c0.5-0.2,1-0.3,1.5-0.3c0.5,0,1,0.1,1.5,0.3c0.5,0.2,0.9,0.4,1.2,0.8c0.4,0.3,0.6,0.8,0.8,1.3
			C227.3,336.8,227.4,337.4,227.4,338z M221.4,338c0,0.4,0,0.7,0.1,1c0.1,0.3,0.2,0.6,0.4,0.8c0.2,0.2,0.4,0.4,0.6,0.5
			c0.3,0.1,0.5,0.2,0.9,0.2c0.3,0,0.6-0.1,0.9-0.2c0.3-0.1,0.5-0.3,0.7-0.5c0.2-0.2,0.3-0.5,0.4-0.8c0.1-0.3,0.1-0.7,0.1-1
			c0-0.4,0-0.7-0.1-1c-0.1-0.3-0.2-0.6-0.4-0.8c-0.2-0.2-0.4-0.4-0.7-0.5c-0.3-0.1-0.5-0.2-0.9-0.2c-0.3,0-0.6,0.1-0.9,0.2
			c-0.3,0.1-0.5,0.3-0.6,0.5s-0.3,0.5-0.4,0.8C221.5,337.3,221.4,337.7,221.4,338z M224.8,332.1l-1.8,1.6l-0.8-0.7l1.6-1.8
			L224.8,332.1z"/>
		<path class="st1" d="M234.1,341.9c-0.5-0.9-1-1.8-1.6-2.6c-0.6-0.9-1.2-1.7-1.9-2.5v5.1h-1.7v-7.8h1.4c0.2,0.2,0.5,0.6,0.8,0.9
			c0.3,0.4,0.6,0.7,0.9,1.2c0.3,0.4,0.6,0.8,0.9,1.3c0.3,0.4,0.6,0.9,0.9,1.3v-4.6h1.7v7.8H234.1z"/>
	</g>
</g>
<g>
	<g class="st0">
		<path class="st1" d="M189.3,13.1v1.5h-5.2V6.8h1.8v6.3H189.3z"/>
		<path class="st1" d="M197.6,10.7c0,0.7-0.1,1.3-0.3,1.8c-0.2,0.5-0.5,0.9-0.8,1.3s-0.8,0.6-1.2,0.8c-0.5,0.2-1,0.3-1.5,0.3
			c-0.5,0-1-0.1-1.5-0.3c-0.5-0.2-0.9-0.4-1.2-0.8c-0.4-0.3-0.6-0.8-0.8-1.3c-0.2-0.5-0.3-1.1-0.3-1.8s0.1-1.3,0.3-1.8
			c0.2-0.5,0.5-0.9,0.8-1.3s0.8-0.6,1.2-0.8c0.5-0.2,1-0.3,1.5-0.3c0.5,0,1,0.1,1.5,0.3c0.5,0.2,0.9,0.4,1.2,0.8
			c0.4,0.3,0.6,0.8,0.8,1.3C197.5,9.4,197.6,10,197.6,10.7z M191.7,10.7c0,0.4,0,0.7,0.1,1c0.1,0.3,0.2,0.6,0.4,0.8
			c0.2,0.2,0.4,0.4,0.6,0.5c0.3,0.1,0.5,0.2,0.9,0.2c0.3,0,0.6-0.1,0.9-0.2c0.3-0.1,0.5-0.3,0.7-0.5c0.2-0.2,0.3-0.5,0.4-0.8
			c0.1-0.3,0.1-0.7,0.1-1c0-0.4,0-0.7-0.1-1c-0.1-0.3-0.2-0.6-0.4-0.8c-0.2-0.2-0.4-0.4-0.7-0.5c-0.3-0.1-0.5-0.2-0.9-0.2
			c-0.3,0-0.6,0.1-0.9,0.2c-0.3,0.1-0.5,0.3-0.6,0.5c-0.2,0.2-0.3,0.5-0.4,0.8C191.7,10,191.7,10.3,191.7,10.7z"/>
		<path class="st1" d="M202.9,8.2c-0.8,0-1.4,0.2-1.8,0.7c-0.4,0.5-0.5,1.1-0.5,1.9c0,0.4,0,0.7,0.1,1s0.2,0.6,0.4,0.8
			s0.4,0.4,0.7,0.5c0.3,0.1,0.6,0.2,0.9,0.2c0.2,0,0.4,0,0.5,0c0.1,0,0.3,0,0.4,0v-2.7h1.8v3.9c-0.2,0.1-0.5,0.2-1,0.3
			s-1,0.1-1.7,0.1c-0.6,0-1.1-0.1-1.6-0.3c-0.5-0.2-0.9-0.4-1.2-0.8c-0.3-0.3-0.6-0.8-0.8-1.3s-0.3-1.1-0.3-1.7
			c0-0.7,0.1-1.2,0.3-1.7c0.2-0.5,0.5-0.9,0.8-1.3c0.4-0.3,0.8-0.6,1.2-0.8c0.5-0.2,1-0.3,1.5-0.3c0.4,0,0.7,0,1,0.1
			c0.3,0,0.6,0.1,0.8,0.2c0.2,0.1,0.4,0.1,0.5,0.2s0.2,0.1,0.3,0.2l-0.5,1.4c-0.2-0.1-0.5-0.2-0.8-0.3S203.2,8.2,202.9,8.2z"/>
		<path class="st1" d="M214.4,10.7c0,0.7-0.1,1.3-0.3,1.8c-0.2,0.5-0.5,0.9-0.8,1.3c-0.3,0.3-0.8,0.6-1.2,0.8
			c-0.5,0.2-1,0.3-1.5,0.3c-0.5,0-1-0.1-1.5-0.3c-0.5-0.2-0.9-0.4-1.2-0.8c-0.4-0.3-0.6-0.8-0.8-1.3c-0.2-0.5-0.3-1.1-0.3-1.8
			s0.1-1.3,0.3-1.8c0.2-0.5,0.5-0.9,0.8-1.3c0.4-0.3,0.8-0.6,1.2-0.8c0.5-0.2,1-0.3,1.5-0.3c0.5,0,1,0.1,1.5,0.3
			c0.5,0.2,0.9,0.4,1.2,0.8c0.4,0.3,0.6,0.8,0.8,1.3C214.3,9.4,214.4,10,214.4,10.7z M208.4,10.7c0,0.4,0,0.7,0.1,1
			c0.1,0.3,0.2,0.6,0.4,0.8c0.2,0.2,0.4,0.4,0.6,0.5c0.3,0.1,0.5,0.2,0.9,0.2c0.3,0,0.6-0.1,0.9-0.2c0.3-0.1,0.5-0.3,0.7-0.5
			c0.2-0.2,0.3-0.5,0.4-0.8c0.1-0.3,0.1-0.7,0.1-1c0-0.4,0-0.7-0.1-1c-0.1-0.3-0.2-0.6-0.4-0.8c-0.2-0.2-0.4-0.4-0.7-0.5
			c-0.3-0.1-0.5-0.2-0.9-0.2c-0.3,0-0.6,0.1-0.9,0.2c-0.3,0.1-0.5,0.3-0.6,0.5c-0.2,0.2-0.3,0.5-0.4,0.8
			C208.5,10,208.4,10.3,208.4,10.7z"/>
	</g>
</g>
<g>
	<line class="st2" x1="199.2" y1="320.5" x2="199.2" y2="30.2"/>
	<g>
		<polygon class="st2" points="199.2,30.2 324.9,102.8 324.9,247.9 199.2,320.5 73.5,247.9 73.5,102.8 		"/>
		<line class="st2" x1="73.5" y1="102.8" x2="324.9" y2="247.9"/>
		<line class="st2" x1="73.5" y1="247.9" x2="324.9" y2="102.8"/>
		<polygon class="st2" points="199.2,57 301.7,116.1 301.7,234.5 199.2,293.6 96.7,234.5 96.7,116.1 		"/>
		<polygon class="st2" points="199.2,85.2 277.2,130.3 277.2,220.4 199.2,265.4 121.2,220.4 121.2,130.3 		"/>
		<polygon class="st2" points="199.2,114.1 252.1,144.7 252.1,206 199.2,236.5 146.2,206 146.2,144.7 		"/>
		<polygon class="st2" points="199.2,141.5 228.5,158.4 228.5,192.3 199.2,209.2 169.9,192.3 169.9,158.4 		"/>
	</g>
</g>
<polygon class="st3" points="199.2,49.7 310,111.3 305.2,236.5 199.2,278.3 112.4,225.4 93.2,114.1 "/>
<g class="st0">
	<path class="st4" d="M180.4,33c0.4-0.1,0.7-0.3,1-0.5c0.3-0.2,0.6-0.5,0.9-0.8h0.6v6.5h-0.9v-5.3c-0.1,0.1-0.2,0.1-0.3,0.2
		c-0.1,0.1-0.2,0.1-0.4,0.2s-0.3,0.1-0.4,0.2c-0.1,0.1-0.3,0.1-0.4,0.2L180.4,33z"/>
	<path class="st4" d="M185.3,34.9c0-1.1,0.2-1.9,0.6-2.5c0.4-0.6,0.9-0.9,1.6-0.9s1.2,0.3,1.6,0.9c0.4,0.6,0.6,1.4,0.6,2.5
		c0,1.1-0.2,1.9-0.6,2.5c-0.4,0.6-0.9,0.9-1.6,0.9s-1.2-0.3-1.6-0.9C185.5,36.9,185.3,36,185.3,34.9z M188.8,34.9c0-0.4,0-0.7-0.1-1
		s-0.1-0.6-0.2-0.8s-0.2-0.4-0.4-0.6c-0.2-0.1-0.4-0.2-0.6-0.2s-0.4,0.1-0.6,0.2c-0.2,0.1-0.3,0.3-0.4,0.6c-0.1,0.2-0.2,0.5-0.2,0.8
		c0,0.3-0.1,0.7-0.1,1c0,0.4,0,0.7,0.1,1c0,0.3,0.1,0.6,0.2,0.8c0.1,0.2,0.2,0.4,0.4,0.6c0.2,0.1,0.4,0.2,0.6,0.2s0.4-0.1,0.6-0.2
		c0.2-0.1,0.3-0.3,0.4-0.6s0.2-0.5,0.2-0.8S188.8,35.3,188.8,34.9z"/>
	<path class="st4" d="M190.6,34.9c0-1.1,0.2-1.9,0.6-2.5c0.4-0.6,0.9-0.9,1.6-0.9s1.2,0.3,1.6,0.9c0.4,0.6,0.6,1.4,0.6,2.5
		c0,1.1-0.2,1.9-0.6,2.5c-0.4,0.6-0.9,0.9-1.6,0.9s-1.2-0.3-1.6-0.9C190.8,36.9,190.6,36,190.6,34.9z M194,34.9c0-0.4,0-0.7-0.1-1
		s-0.1-0.6-0.2-0.8s-0.2-0.4-0.4-0.6c-0.2-0.1-0.4-0.2-0.6-0.2s-0.4,0.1-0.6,0.2c-0.2,0.1-0.3,0.3-0.4,0.6c-0.1,0.2-0.2,0.5-0.2,0.8
		c0,0.3-0.1,0.7-0.1,1c0,0.4,0,0.7,0.1,1c0,0.3,0.1,0.6,0.2,0.8c0.1,0.2,0.2,0.4,0.4,0.6c0.2,0.1,0.4,0.2,0.6,0.2s0.4-0.1,0.6-0.2
		c0.2-0.1,0.3-0.3,0.4-0.6s0.2-0.5,0.2-0.8S194,35.3,194,34.9z"/>
</g>
<g class="st0">
	<path class="st4" d="M189.6,63.7c0,0.3,0,0.5-0.1,0.7c-0.1,0.2-0.2,0.4-0.4,0.6c-0.2,0.2-0.4,0.3-0.7,0.4c-0.3,0.1-0.6,0.1-0.9,0.1
		c-0.4,0-0.7-0.1-1-0.2c-0.3-0.1-0.5-0.3-0.7-0.4c-0.2-0.2-0.3-0.4-0.3-0.6c-0.1-0.2-0.1-0.4-0.1-0.6c0-0.2,0-0.4,0.1-0.5
		c0.1-0.2,0.1-0.3,0.2-0.5c0.1-0.1,0.2-0.3,0.3-0.4c0.1-0.1,0.3-0.2,0.4-0.3c-0.6-0.3-0.9-0.9-0.9-1.5c0-0.2,0-0.5,0.1-0.7
		c0.1-0.2,0.2-0.4,0.4-0.6c0.2-0.2,0.4-0.3,0.6-0.4c0.2-0.1,0.5-0.1,0.8-0.1c0.3,0,0.6,0.1,0.9,0.2c0.2,0.1,0.5,0.2,0.6,0.4
		c0.2,0.2,0.3,0.3,0.3,0.5c0.1,0.2,0.1,0.4,0.1,0.6c0,0.2,0,0.4-0.1,0.5c-0.1,0.2-0.1,0.3-0.2,0.4c-0.1,0.1-0.2,0.3-0.3,0.4
		c-0.1,0.1-0.2,0.2-0.4,0.3C189.2,62.4,189.6,62.9,189.6,63.7z M186.2,63.7c0,0.1,0,0.2,0.1,0.4c0,0.1,0.1,0.2,0.2,0.3
		c0.1,0.1,0.2,0.2,0.4,0.3c0.2,0.1,0.4,0.1,0.6,0.1c0.2,0,0.4,0,0.6-0.1c0.2-0.1,0.3-0.1,0.4-0.2c0.1-0.1,0.2-0.2,0.2-0.3
		c0-0.1,0.1-0.3,0.1-0.4c0-0.2,0-0.4-0.1-0.5c-0.1-0.1-0.2-0.3-0.3-0.4c-0.1-0.1-0.3-0.2-0.5-0.3s-0.4-0.1-0.7-0.2
		c-0.3,0.2-0.5,0.3-0.7,0.6C186.3,63.1,186.2,63.4,186.2,63.7z M188.6,60.4c0-0.1,0-0.2-0.1-0.3s-0.1-0.2-0.2-0.3
		c-0.1-0.1-0.2-0.2-0.3-0.2s-0.3-0.1-0.5-0.1s-0.4,0-0.5,0.1c-0.1,0.1-0.3,0.1-0.3,0.2s-0.2,0.2-0.2,0.3c0,0.1-0.1,0.2-0.1,0.3
		c0,0.1,0,0.3,0.1,0.4c0.1,0.1,0.1,0.3,0.2,0.4c0.1,0.1,0.2,0.2,0.4,0.3c0.2,0.1,0.4,0.2,0.6,0.2c0.3-0.2,0.5-0.3,0.6-0.5
		C188.5,61,188.6,60.7,188.6,60.4z"/>
	<path class="st4" d="M190.6,62.1c0-1.1,0.2-1.9,0.6-2.5c0.4-0.6,0.9-0.9,1.6-0.9s1.2,0.3,1.6,0.9c0.4,0.6,0.6,1.4,0.6,2.5
		c0,1.1-0.2,1.9-0.6,2.5c-0.4,0.6-0.9,0.9-1.6,0.9s-1.2-0.3-1.6-0.9C190.8,64,190.6,63.2,190.6,62.1z M194,62.1c0-0.4,0-0.7-0.1-1
		s-0.1-0.6-0.2-0.8s-0.2-0.4-0.4-0.6c-0.2-0.1-0.4-0.2-0.6-0.2s-0.4,0.1-0.6,0.2c-0.2,0.1-0.3,0.3-0.4,0.6c-0.1,0.2-0.2,0.5-0.2,0.8
		c0,0.3-0.1,0.7-0.1,1c0,0.4,0,0.7,0.1,1c0,0.3,0.1,0.6,0.2,0.8c0.1,0.2,0.2,0.4,0.4,0.6c0.2,0.1,0.4,0.2,0.6,0.2s0.4-0.1,0.6-0.2
		c0.2-0.1,0.3-0.3,0.4-0.6s0.2-0.5,0.2-0.8S194,62.5,194,62.1z"/>
</g>
<g class="st0">
	<path class="st4" d="M185.4,89.9c0-0.6,0.1-1.2,0.3-1.7c0.2-0.5,0.4-0.9,0.7-1.2c0.3-0.3,0.7-0.6,1.2-0.8s1-0.3,1.6-0.3l0.1,0.7
		c-0.4,0-0.7,0-1,0.1c-0.3,0.1-0.6,0.2-0.8,0.4s-0.4,0.4-0.6,0.6c-0.2,0.3-0.3,0.6-0.4,1c0.2-0.1,0.3-0.1,0.5-0.2
		c0.2-0.1,0.4-0.1,0.6-0.1c0.4,0,0.7,0.1,0.9,0.2c0.3,0.1,0.5,0.3,0.6,0.4c0.2,0.2,0.3,0.4,0.4,0.6s0.1,0.5,0.1,0.8
		c0,0.2,0,0.5-0.1,0.7c-0.1,0.2-0.2,0.5-0.4,0.7s-0.4,0.4-0.6,0.5c-0.3,0.1-0.6,0.2-0.9,0.2c-0.7,0-1.3-0.2-1.6-0.7
		C185.6,91.4,185.4,90.8,185.4,89.9z M187.5,89.2c-0.2,0-0.4,0-0.6,0.1c-0.2,0-0.4,0.1-0.6,0.2c0,0.1,0,0.1,0,0.2c0,0.1,0,0.1,0,0.2
		c0,0.3,0,0.5,0.1,0.8c0,0.2,0.1,0.5,0.2,0.6c0.1,0.2,0.2,0.3,0.4,0.4c0.2,0.1,0.4,0.2,0.6,0.2c0.2,0,0.4,0,0.5-0.1
		c0.1-0.1,0.3-0.2,0.4-0.3s0.2-0.3,0.2-0.4s0.1-0.3,0.1-0.5c0-0.4-0.1-0.7-0.3-1C188.2,89.4,187.9,89.2,187.5,89.2z"/>
	<path class="st4" d="M190.6,89.3c0-1.1,0.2-1.9,0.6-2.5c0.4-0.6,0.9-0.9,1.6-0.9s1.2,0.3,1.6,0.9c0.4,0.6,0.6,1.4,0.6,2.5
		c0,1.1-0.2,1.9-0.6,2.5c-0.4,0.6-0.9,0.9-1.6,0.9s-1.2-0.3-1.6-0.9C190.8,91.2,190.6,90.4,190.6,89.3z M194,89.3c0-0.4,0-0.7-0.1-1
		s-0.1-0.6-0.2-0.8s-0.2-0.4-0.4-0.6c-0.2-0.1-0.4-0.2-0.6-0.2s-0.4,0.1-0.6,0.2c-0.2,0.1-0.3,0.3-0.4,0.6c-0.1,0.2-0.2,0.5-0.2,0.8
		c0,0.3-0.1,0.7-0.1,1c0,0.4,0,0.7,0.1,1c0,0.3,0.1,0.6,0.2,0.8c0.1,0.2,0.2,0.4,0.4,0.6c0.2,0.1,0.4,0.2,0.6,0.2s0.4-0.1,0.6-0.2
		c0.2-0.1,0.3-0.3,0.4-0.6s0.2-0.5,0.2-0.8S194,89.6,194,89.3z"/>
</g>
<g class="st0">
	<path class="st4" d="M185.2,117.4c0.1-0.3,0.3-0.6,0.5-1s0.4-0.7,0.7-1.1c0.3-0.4,0.5-0.8,0.8-1.1c0.3-0.4,0.6-0.7,0.9-1h0.8v4.1
		h0.8v0.7h-0.8v1.7h-0.8V118h-2.9V117.4z M188.1,114.2c-0.2,0.2-0.4,0.4-0.6,0.7c-0.2,0.2-0.4,0.5-0.6,0.8c-0.2,0.3-0.4,0.5-0.5,0.8
		c-0.2,0.3-0.3,0.6-0.4,0.8h2.1V114.2z"/>
	<path class="st4" d="M190.6,116.4c0-1.1,0.2-1.9,0.6-2.5c0.4-0.6,0.9-0.9,1.6-0.9s1.2,0.3,1.6,0.9c0.4,0.6,0.6,1.4,0.6,2.5
		c0,1.1-0.2,1.9-0.6,2.5c-0.4,0.6-0.9,0.9-1.6,0.9s-1.2-0.3-1.6-0.9C190.8,118.3,190.6,117.5,190.6,116.4z M194,116.4
		c0-0.4,0-0.7-0.1-1s-0.1-0.6-0.2-0.8s-0.2-0.4-0.4-0.6c-0.2-0.1-0.4-0.2-0.6-0.2s-0.4,0.1-0.6,0.2c-0.2,0.1-0.3,0.3-0.4,0.6
		c-0.1,0.2-0.2,0.5-0.2,0.8c0,0.3-0.1,0.7-0.1,1c0,0.4,0,0.7,0.1,1c0,0.3,0.1,0.6,0.2,0.8c0.1,0.2,0.2,0.4,0.4,0.6
		c0.2,0.1,0.4,0.2,0.6,0.2s0.4-0.1,0.6-0.2c0.2-0.1,0.3-0.3,0.4-0.6s0.2-0.5,0.2-0.8S194,116.8,194,116.4z"/>
</g>
<g class="st0">
	<path class="st4" d="M189.2,142c0,0.2,0,0.4-0.1,0.7c-0.1,0.2-0.2,0.4-0.4,0.6c-0.1,0.2-0.3,0.4-0.5,0.6c-0.2,0.2-0.4,0.4-0.6,0.6
		c-0.1,0.1-0.2,0.2-0.4,0.4s-0.3,0.3-0.4,0.4c-0.1,0.2-0.2,0.3-0.3,0.5s-0.1,0.3-0.1,0.4h3v0.7h-3.9c0,0,0-0.1,0-0.1s0-0.1,0-0.1
		c0-0.3,0-0.6,0.1-0.8c0.1-0.3,0.2-0.5,0.4-0.7c0.2-0.2,0.3-0.4,0.5-0.6c0.2-0.2,0.4-0.4,0.6-0.6c0.2-0.2,0.3-0.3,0.4-0.4
		s0.3-0.3,0.4-0.4c0.1-0.1,0.2-0.3,0.3-0.5c0.1-0.2,0.1-0.3,0.1-0.5c0-0.2,0-0.3-0.1-0.5c-0.1-0.1-0.1-0.2-0.2-0.3
		c-0.1-0.1-0.2-0.2-0.4-0.2c-0.1,0-0.3-0.1-0.4-0.1c-0.2,0-0.3,0-0.5,0.1s-0.3,0.1-0.4,0.2s-0.2,0.1-0.3,0.2
		c-0.1,0.1-0.1,0.1-0.2,0.2l-0.4-0.6c0.1-0.1,0.1-0.1,0.3-0.2s0.2-0.2,0.4-0.3c0.2-0.1,0.3-0.1,0.5-0.2c0.2-0.1,0.4-0.1,0.6-0.1
		c0.7,0,1.2,0.2,1.5,0.5C189,141,189.2,141.4,189.2,142z"/>
	<path class="st4" d="M190.6,143.6c0-1.1,0.2-1.9,0.6-2.5c0.4-0.6,0.9-0.9,1.6-0.9s1.2,0.3,1.6,0.9c0.4,0.6,0.6,1.4,0.6,2.5
		c0,1.1-0.2,1.9-0.6,2.5c-0.4,0.6-0.9,0.9-1.6,0.9s-1.2-0.3-1.6-0.9C190.8,145.5,190.6,144.7,190.6,143.6z M194,143.6
		c0-0.4,0-0.7-0.1-1s-0.1-0.6-0.2-0.8s-0.2-0.4-0.4-0.6c-0.2-0.1-0.4-0.2-0.6-0.2s-0.4,0.1-0.6,0.2c-0.2,0.1-0.3,0.3-0.4,0.6
		c-0.1,0.2-0.2,0.5-0.2,0.8c0,0.3-0.1,0.7-0.1,1c0,0.4,0,0.7,0.1,1c0,0.3,0.1,0.6,0.2,0.8c0.1,0.2,0.2,0.4,0.4,0.6
		c0.2,0.1,0.4,0.2,0.6,0.2s0.4-0.1,0.6-0.2c0.2-0.1,0.3-0.3,0.4-0.6s0.2-0.5,0.2-0.8S194,143.9,194,143.6z"/>
</g>
<g class="st0">
	<path class="st4" d="M190.6,170.7c0-1.1,0.2-1.9,0.6-2.5c0.4-0.6,0.9-0.9,1.6-0.9s1.2,0.3,1.6,0.9c0.4,0.6,0.6,1.4,0.6,2.5
		c0,1.1-0.2,1.9-0.6,2.5c-0.4,0.6-0.9,0.9-1.6,0.9s-1.2-0.3-1.6-0.9C190.8,172.7,190.6,171.8,190.6,170.7z M194.1,170.7
		c0-0.4,0-0.7-0.1-1s-0.1-0.6-0.2-0.8s-0.2-0.4-0.4-0.6c-0.2-0.1-0.4-0.2-0.6-0.2s-0.4,0.1-0.6,0.2c-0.2,0.1-0.3,0.3-0.4,0.6
		c-0.1,0.2-0.2,0.5-0.2,0.8c0,0.3-0.1,0.7-0.1,1c0,0.4,0,0.7,0.1,1c0,0.3,0.1,0.6,0.2,0.8c0.1,0.2,0.2,0.4,0.4,0.6
		c0.2,0.1,0.4,0.2,0.6,0.2s0.4-0.1,0.6-0.2c0.2-0.1,0.3-0.3,0.4-0.6s0.2-0.5,0.2-0.8S194.1,171.1,194.1,170.7z"/>
</g>
<g>
	<g class="st0">
		<path class="st1" d="M8.2,252.3v1.5H3V246h1.8v6.3H8.2z"/>
		<path class="st1" d="M9.3,253.8V246h5.3v1.5H11v1.5h3.1v1.4H11v1.9h3.8v1.5H9.3z"/>
		<path class="st1" d="M21.9,246v1.5h-2.3v6.3h-1.8v-6.3h-2.3V246H21.9z"/>
		<path class="st1" d="M29.1,246v1.5h-2.3v6.3H25v-6.3h-2.3V246H29.1z"/>
		<path class="st1" d="M30.2,253.8V246h5.3v1.5h-3.5v1.5h3.1v1.4h-3.1v1.9h3.8v1.5H30.2z"/>
		<path class="st1" d="M39.3,245.9c1.2,0,2.1,0.2,2.7,0.6c0.6,0.4,0.9,1.1,0.9,1.9c0,0.5-0.1,1-0.4,1.3s-0.6,0.6-1.1,0.8
			c0.2,0.2,0.3,0.4,0.5,0.7c0.2,0.3,0.3,0.5,0.5,0.8c0.2,0.3,0.3,0.6,0.5,0.9c0.2,0.3,0.3,0.6,0.4,0.9h-2c-0.1-0.3-0.3-0.5-0.4-0.8
			s-0.3-0.5-0.5-0.8s-0.3-0.5-0.5-0.7s-0.3-0.4-0.5-0.6h-0.9v2.8H37v-7.7c0.4-0.1,0.8-0.1,1.2-0.2C38.6,246,39,245.9,39.3,245.9z
			 M39.4,247.4c-0.1,0-0.2,0-0.3,0c-0.1,0-0.2,0-0.3,0v2.1h0.5c0.7,0,1.1-0.1,1.4-0.2c0.3-0.2,0.4-0.4,0.4-0.8
			c0-0.4-0.1-0.7-0.4-0.8S39.9,247.4,39.4,247.4z"/>
		<path class="st1" d="M44.5,246h1.8v7.8h-1.8V246z"/>
		<path class="st1" d="M53.3,253.8c-0.5-0.9-1-1.8-1.6-2.6s-1.2-1.7-1.9-2.5v5.1H48V246h1.4c0.2,0.2,0.5,0.6,0.8,0.9
			c0.3,0.4,0.6,0.7,0.9,1.2s0.6,0.8,0.9,1.3c0.3,0.4,0.6,0.9,0.9,1.3V246h1.7v7.8H53.3z"/>
		<path class="st1" d="M60.3,247.4c-0.8,0-1.4,0.2-1.8,0.7c-0.4,0.5-0.5,1.1-0.5,1.9c0,0.4,0,0.7,0.1,1s0.2,0.6,0.4,0.8
			s0.4,0.4,0.7,0.5c0.3,0.1,0.6,0.2,0.9,0.2c0.2,0,0.4,0,0.5,0c0.1,0,0.3,0,0.4,0v-2.7h1.8v3.9c-0.2,0.1-0.5,0.2-1,0.3
			c-0.5,0.1-1,0.1-1.7,0.1c-0.6,0-1.1-0.1-1.6-0.3c-0.5-0.2-0.9-0.4-1.2-0.8c-0.3-0.3-0.6-0.8-0.8-1.3s-0.3-1.1-0.3-1.7
			c0-0.7,0.1-1.2,0.3-1.7c0.2-0.5,0.5-0.9,0.8-1.3c0.4-0.3,0.8-0.6,1.2-0.8c0.5-0.2,1-0.3,1.5-0.3c0.4,0,0.7,0,1,0.1
			c0.3,0,0.6,0.1,0.8,0.2c0.2,0.1,0.4,0.1,0.5,0.2c0.1,0.1,0.2,0.1,0.3,0.2l-0.5,1.4c-0.2-0.1-0.5-0.2-0.8-0.3
			S60.7,247.4,60.3,247.4z"/>
	</g>
</g>
<g>
	<g class="st0">
		<path class="st1" d="M4.7,104v-7.8H10v1.5H6.5v1.5h3.1v1.4H6.5v1.9h3.8v1.5H4.7z"/>
		<path class="st1" d="M18.4,100.1c0,0.7-0.1,1.3-0.3,1.8s-0.5,0.9-0.9,1.2c-0.4,0.3-0.9,0.6-1.4,0.7c-0.6,0.2-1.2,0.2-1.9,0.2
			c-0.3,0-0.7,0-1.1,0c-0.4,0-0.8-0.1-1.2-0.2v-7.6c0.4-0.1,0.8-0.1,1.3-0.2c0.4,0,0.8,0,1.1,0c0.7,0,1.3,0.1,1.8,0.2
			c0.5,0.2,1,0.4,1.4,0.7c0.4,0.3,0.7,0.7,0.9,1.2S18.4,99.4,18.4,100.1z M13.3,102.5c0.1,0,0.2,0,0.3,0c0.1,0,0.2,0,0.4,0
			c0.9,0,1.5-0.2,2-0.7c0.4-0.4,0.6-1.1,0.6-1.8c0-0.8-0.2-1.4-0.6-1.9c-0.4-0.4-1-0.6-1.9-0.6c-0.1,0-0.2,0-0.4,0
			c-0.1,0-0.2,0-0.4,0V102.5z"/>
		<path class="st1" d="M19.8,96.2h1.8v7.8h-1.8V96.2z"/>
		<path class="st1" d="M29.2,96.2v1.5h-2.3v6.3h-1.8v-6.3h-2.3v-1.5H29.2z"/>
		<path class="st1" d="M37.4,100.1c0,0.7-0.1,1.3-0.3,1.8c-0.2,0.5-0.5,0.9-0.8,1.3s-0.8,0.6-1.2,0.8c-0.5,0.2-1,0.3-1.5,0.3
			c-0.5,0-1-0.1-1.5-0.3c-0.5-0.2-0.9-0.4-1.2-0.8c-0.4-0.3-0.6-0.8-0.8-1.3c-0.2-0.5-0.3-1.1-0.3-1.8s0.1-1.3,0.3-1.8
			c0.2-0.5,0.5-0.9,0.8-1.3s0.8-0.6,1.2-0.8c0.5-0.2,1-0.3,1.5-0.3c0.5,0,1,0.1,1.5,0.3c0.5,0.2,0.9,0.4,1.2,0.8
			c0.4,0.3,0.6,0.8,0.8,1.3C37.3,98.8,37.4,99.4,37.4,100.1z M31.5,100.1c0,0.4,0,0.7,0.1,1c0.1,0.3,0.2,0.6,0.4,0.8
			c0.2,0.2,0.4,0.4,0.6,0.5c0.3,0.1,0.5,0.2,0.9,0.2c0.3,0,0.6-0.1,0.9-0.2c0.3-0.1,0.5-0.3,0.7-0.5c0.2-0.2,0.3-0.5,0.4-0.8
			c0.1-0.3,0.1-0.7,0.1-1c0-0.4,0-0.7-0.1-1c-0.1-0.3-0.2-0.6-0.4-0.8c-0.2-0.2-0.4-0.4-0.7-0.5c-0.3-0.1-0.5-0.2-0.9-0.2
			c-0.3,0-0.6,0.1-0.9,0.2c-0.3,0.1-0.5,0.3-0.6,0.5c-0.2,0.2-0.3,0.5-0.4,0.8C31.5,99.3,31.5,99.7,31.5,100.1z"/>
		<path class="st1" d="M41.2,96.1c1.2,0,2.1,0.2,2.7,0.6c0.6,0.4,0.9,1.1,0.9,1.9c0,0.5-0.1,1-0.4,1.3s-0.6,0.6-1.1,0.8
			c0.2,0.2,0.3,0.4,0.5,0.7c0.2,0.3,0.3,0.5,0.5,0.8c0.2,0.3,0.3,0.6,0.5,0.9c0.2,0.3,0.3,0.6,0.4,0.9h-2c-0.1-0.3-0.3-0.5-0.4-0.8
			s-0.3-0.5-0.5-0.8s-0.3-0.5-0.5-0.7s-0.3-0.4-0.5-0.6h-0.9v2.8h-1.8v-7.7c0.4-0.1,0.8-0.1,1.2-0.2C40.5,96.1,40.9,96.1,41.2,96.1z
			 M41.3,97.6c-0.1,0-0.2,0-0.3,0c-0.1,0-0.2,0-0.3,0v2.1h0.5c0.7,0,1.1-0.1,1.4-0.2c0.3-0.2,0.4-0.4,0.4-0.8c0-0.4-0.1-0.7-0.4-0.8
			S41.9,97.6,41.3,97.6z"/>
		<path class="st1" d="M46.4,96.2h1.8v7.8h-1.8V96.2z"/>
		<path class="st1" d="M55.2,104c-0.1-0.3-0.2-0.5-0.3-0.8c-0.1-0.3-0.2-0.6-0.3-0.9h-3c-0.1,0.3-0.2,0.6-0.3,0.9
			c-0.1,0.3-0.2,0.6-0.3,0.8h-1.8c0.3-0.8,0.6-1.6,0.8-2.3c0.3-0.7,0.5-1.4,0.8-2c0.3-0.6,0.5-1.2,0.7-1.8c0.2-0.6,0.5-1.1,0.8-1.7
			h1.7c0.3,0.5,0.5,1.1,0.8,1.7c0.2,0.6,0.5,1.2,0.8,1.8c0.3,0.6,0.5,1.3,0.8,2c0.3,0.7,0.5,1.5,0.8,2.3H55.2z M53.1,97.9
			c0,0.1-0.1,0.3-0.2,0.5c-0.1,0.2-0.2,0.4-0.3,0.7c-0.1,0.3-0.2,0.5-0.3,0.8c-0.1,0.3-0.2,0.6-0.4,1h2.2c-0.1-0.3-0.2-0.7-0.3-1
			c-0.1-0.3-0.2-0.6-0.3-0.8c-0.1-0.3-0.2-0.5-0.3-0.7C53.2,98.2,53.1,98,53.1,97.9z"/>
		<path class="st1" d="M63.3,102.5v1.5h-5.2v-7.8h1.8v6.3H63.3z"/>
	</g>
</g>
</svg>
