<?xml version="1.0" encoding="utf-8"?>
<!-- Generator: Adobe Illustrator 19.2.0, SVG Export Plug-In . SVG Version: 6.00 Build 0)  -->
<svg version="1.1" id="Layer_1" xmlns="http://www.w3.org/2000/svg" xmlns:xlink="http://www.w3.org/1999/xlink" x="0px" y="0px"
	 viewBox="0 0 400 349.3" style="enable-background:new 0 0 400 349.3;" xml:space="preserve">
<style type="text/css">
	.st0{fill:#333333;}
	.st1{font-family:'Ubuntu-Bold';}
	.st2{font-size:11.2395px;}
	.st3{fill:none;stroke:#E6E7E8;stroke-width:2;stroke-miterlimit:10;}
	.st4{fill:none;stroke:#F37466;stroke-width:3;stroke-miterlimit:10;}
	.st5{fill:#949493;}
	.st6{font-family:'Ubuntu';}
	.st7{font-size:9.3662px;}
</style>
<g>
	<text transform="matrix(1 0 0 1 334.0273 98.5083)" class="st0 st1 st2">IDENTIDAD</text>
	<text transform="matrix(1 0 0 1 344.8271 109.7363)" class="st0 st1 st2">VISUAL</text>
</g>
<g>
	<text transform="matrix(1 0 0 1 337.7051 249.7827)" class="st0 st1 st2">WEB</text>
</g>
<g>
	<text transform="matrix(1 0 0 1 161.6318 341.9399)" class="st0 st1 st2">ILUSTRACIÓN</text>
</g>
<g>
	<text transform="matrix(1 0 0 1 183.1826 14.5913)" class="st0 st1 st2">LOGO</text>
</g>
<g>
	<line class="st3" x1="199.2" y1="320.5" x2="199.2" y2="30.2"/>
	<g>
		<polygon class="st3" points="199.2,30.2 324.9,102.8 324.9,247.9 199.2,320.5 73.5,247.9 73.5,102.8 		"/>
		<line class="st3" x1="73.5" y1="102.8" x2="324.9" y2="247.9"/>
		<line class="st3" x1="73.5" y1="247.9" x2="324.9" y2="102.8"/>
		<polygon class="st3" points="199.2,57 301.7,116.1 301.7,234.5 199.2,293.6 96.7,234.5 96.7,116.1 		"/>
		<polygon class="st3" points="199.2,85.2 277.2,130.3 277.2,220.4 199.2,265.4 121.2,220.4 121.2,130.3 		"/>
		<polygon class="st3" points="199.2,114.1 252.1,144.7 252.1,206 199.2,236.5 146.2,206 146.2,144.7 		"/>
		<polygon class="st3" points="199.2,141.5 228.5,158.4 228.5,192.3 199.2,209.2 169.9,192.3 169.9,158.4 		"/>
	</g>
</g>
<polygon class="st4" points="199.2,49.7 310,111.3 305.2,236.5 199.2,278.3 112.4,225.4 93.2,114.1 "/>
<text transform="matrix(1 0 0 1 179.5781 38.1934)" class="st5 st6 st7">100</text>
<text transform="matrix(1 0 0 1 184.8174 65.3545)" class="st5 st6 st7">80</text>
<text transform="matrix(1 0 0 1 184.8174 92.5152)" class="st5 st6 st7">60</text>
<text transform="matrix(1 0 0 1 184.8174 119.6758)" class="st5 st6 st7">40</text>
<text transform="matrix(1 0 0 1 184.8174 146.8364)" class="st5 st6 st7">20</text>
<text transform="matrix(1 0 0 1 190.1646 173.9976)" class="st5 st6 st7">0</text>
<g>
	<text transform="matrix(1 0 0 1 2.0586 253.8189)" class="st0 st1 st2">LETTERING</text>
</g>
<g>
	<text transform="matrix(1 0 0 1 3.8403 103.9585)" class="st0 st1 st2">EDITORIAL</text>
</g>
</svg>
