<?xml version="1.0" encoding="utf-8"?>
<!-- Generator: Adobe Illustrator 19.2.0, SVG Export Plug-In . SVG Version: 6.00 Build 0)  -->
<svg version="1.1" id="Layer_1" xmlns="http://www.w3.org/2000/svg" xmlns:xlink="http://www.w3.org/1999/xlink" x="0px" y="0px"
	 viewBox="0 0 200 200" style="enable-background:new 0 0 200 200;" xml:space="preserve">
<style type="text/css">
	.st0{fill:#F27466;}
</style>
<g>
	<path class="st0" d="M162,147.8l-14.3-14.3l-13.9,13.9l13.9,13.9c-13.6,10.6-30.3,16.3-47.8,16.3c-20.9,0-40.5-8.1-55.3-22.9
		C29.8,140,21.7,120.3,21.7,99.5S29.8,59,44.6,44.2c30.5-30.5,80-30.5,110.5,0l7,7L176,37.3l-7-7C130.9-7.9,68.8-7.9,30.7,30.3
		C12.2,48.8,2,73.3,2,99.5c0,26.1,10.2,50.7,28.7,69.2c18.5,18.5,43.1,28.7,69.2,28.7c26.1,0,50.7-10.2,69.2-28.7l7-7L162,147.8
		L162,147.8z"/>
	<path class="st0" d="M72.3,127.1l-7-7L51.4,134l7,7c11.4,11.4,26.5,17.2,41.5,17.2c11.9,0,23.8-3.6,33.9-10.7l-14.2-14.2
		C104.6,141.9,85.1,139.8,72.3,127.1z"/>
	<path class="st0" d="M141.4,58c-22.9-22.9-60.1-22.9-83,0l-7,7l7,7l0,0l61.2,61.2l13.9-13.9L80.1,65.8c14.9-8.8,34.5-6.8,47.3,6.1
		l7,7l13.9-13.9L141.4,58z"/>
</g>
</svg>
