<?xml version="1.0" encoding="utf-8"?>
<!-- Generator: Adobe Illustrator 19.2.0, SVG Export Plug-In . SVG Version: 6.00 Build 0)  -->
<svg version="1.1" id="Layer_1" xmlns="http://www.w3.org/2000/svg" xmlns:xlink="http://www.w3.org/1999/xlink" x="0px" y="0px"
	 viewBox="0 0 200 200" style="enable-background:new 0 0 200 200;" xml:space="preserve">
<style type="text/css">
	.st0{fill:#EF4323;}
</style>
<g>
	<path class="st0" d="M88.3,12.3L58.6,0L46.2,29.8C58.2,20.6,72.6,14.4,88.3,12.3z"/>
	<path class="st0" d="M100,44.7c-30.5,0-55.3,24.7-55.3,55.3s24.7,55.3,55.3,55.3s55.3-24.7,55.3-55.3S130.5,44.7,100,44.7z
		 M124,124H76V76h48V124z"/>
	<path class="st0" d="M153.8,29.8L141.4,0l-29.8,12.3C127.4,14.4,141.8,20.6,153.8,29.8z"/>
	<path class="st0" d="M170.2,46.2c9.2,12,15.4,26.4,17.4,42.1L200,58.6L170.2,46.2z"/>
	<path class="st0" d="M187.7,111.7c-2.1,15.7-8.3,30.1-17.4,42.1l29.8-12.3L187.7,111.7z"/>
	<path class="st0" d="M111.7,187.7l29.8,12.3l12.3-29.8C141.8,179.4,127.4,185.6,111.7,187.7z"/>
	<path class="st0" d="M46.2,170.2L58.6,200l29.8-12.3C72.6,185.6,58.2,179.4,46.2,170.2z"/>
	<path class="st0" d="M12.3,111.7L0,141.4l29.8,12.3C20.6,141.8,14.4,127.4,12.3,111.7z"/>
	<path class="st0" d="M29.8,46.2L0,58.6l12.3,29.8C14.4,72.6,20.6,58.2,29.8,46.2z"/>
</g>
</svg>
