<?xml version="1.0" encoding="utf-8"?>
<!-- Generator: Adobe Illustrator 19.2.0, SVG Export Plug-In . SVG Version: 6.00 Build 0)  -->
<svg version="1.1" id="Layer_1" xmlns="http://www.w3.org/2000/svg" xmlns:xlink="http://www.w3.org/1999/xlink" x="0px" y="0px"
	 viewBox="0 0 400 400" style="enable-background:new 0 0 400 400;" xml:space="preserve">
<style type="text/css">
	.st0{fill:#010101;}
</style>
<g>
	<g>
		<g>
			<g>
				<path class="st0" d="M302.7,149.2c14,3.4,28,7.2,41.1,13.3c11.3,5.2,24.5,13,29.2,25.2c8,20.7-18.9,36.6-33.8,44.1
					c-25.3,12.7-53.6,20.1-81.6,23.8c-19.1,2.5-38.6,4.3-57.9,3.7c-16-0.5-31.9-2-47.8-3.4c-15.6-1.4-31.1-3.1-46.5-6.2
					c-15.1-3-29.9-7.3-44-13.5c-11-4.8-23.3-10.6-30.4-20.7c-7.1-10.2-6.1-21.4,2-30.6c4.3-4.8,9.3-8.5,15-11.5
					c27.6-14.7,57.8-23.5,88.6-28.1c25.6-3.8,51.4-4.6,77.3-4.4c11.9,0.1,23.8,0.7,35.7,1.8c17.7,1.6,35.2,4.8,52.7,7.5
					c1.5,0.2,2.1-1.8,0.6-2.3c-15.7-4.6-32.2-6.5-48.4-8.1c-12.5-1.2-25-1.9-37.5-2.1c-23.3-0.4-46.8,0.2-70,3
					c-32.1,3.8-63.8,11.9-93,26.1c-14.2,7-34.4,19.2-30.9,38.1c2.1,11.1,10.2,19.3,19.4,25.1c11.9,7.6,25.7,12.9,39.2,17
					c31.4,9.5,64.8,11.6,97.3,14c17.9,1.3,35.9,2.1,53.8,0.1c6.5-0.7,13-1.3,19.4-2c27.8-3.1,55.7-10,81.3-21.6
					c16.1-7.3,43.2-21.1,43.1-42.3c0-9.6-6.8-17.5-13.9-23.2c-11.4-9.1-25.7-14.3-39.6-18.1c-6.8-1.9-13.6-3.4-20.5-4.9
					C302.6,148.8,302.5,149.1,302.7,149.2z"/>
			</g>
		</g>
		<g>
			<g>
				<path class="st0" d="M290.5,147.1c11.7,4,24,5.5,35.8,9.2c14,4.3,26.7,11,38.6,19.5c0.5,0.4,1.2-0.5,0.7-0.9
					c-20.9-17.6-47.9-26.7-75-28.8C290,145.9,289.9,146.9,290.5,147.1L290.5,147.1z"/>
			</g>
		</g>
		<g>
			<g>
				<path class="st0" d="M54.4,214.7c4.6-12.8,18.9-19.3,30.4-24.9c6.2-3,12.5-5.6,19-7.8c6.6-2.2,13.6-3.4,20.2-5.8
					c1-0.4,1-2.1-0.3-2c-7.5,0.3-15.3,3-22.4,5.3c-7.6,2.6-15,5.7-22.1,9.4c-8.2,4.3-29,13.5-25.2,25.9
					C54.1,214.9,54.3,214.9,54.4,214.7L54.4,214.7z"/>
			</g>
		</g>
		<g>
			<g>
				<path class="st0" d="M63.1,222.3c6,7.7,17,11.9,25.8,15.3c12.7,5,26,8.2,39.4,10.6c13.8,2.4,27.8,3.9,41.7,4.5
					c14.3,0.7,29.4,1.5,43.6-0.1c0.8-0.1,0.9-1.3,0-1.3c-13.6-0.7-27.3,0.4-41-0.1c-14.1-0.5-28.2-1.8-42.1-4.2
					c-23.5-3.9-48.1-10.1-67.1-25.1C63.2,221.7,62.9,222,63.1,222.3L63.1,222.3z"/>
			</g>
		</g>
		<g>
			<g>
				<path class="st0" d="M233.2,251.5c7.9,0,15.8-0.5,23.5-2.1c0.5-0.1,0.4-0.9-0.1-0.9c-7.8,1-15.6,2-23.4,2.5
					C232.9,251.1,232.9,251.5,233.2,251.5L233.2,251.5z"/>
			</g>
		</g>
		<g>
			<g>
				<path class="st0" d="M268.2,247.5c6.3-0.5,13.1-1,19.2-2.9c0.3-0.1,0.3-0.6-0.1-0.6c-6.4,0.7-12.7,2.3-19.1,3.1
					C268,247.1,268,247.5,268.2,247.5L268.2,247.5z"/>
			</g>
		</g>
		<g>
			<g>
				<path class="st0" d="M298.8,242.1c24.7-7.1,53.1-13.1,71.7-32.2c0.3-0.3-0.1-0.7-0.4-0.4c-10.2,8.3-20.2,15.1-32.6,19.5
					c-12.8,4.6-25.9,8.3-38.7,12.8C298.6,241.9,298.6,242.2,298.8,242.1L298.8,242.1z"/>
			</g>
		</g>
		<g>
			<g>
				<path class="st0" d="M314.2,222.4c5.7-2.1,10.7-4.5,15.3-8.5c2.8-2.5,6.5-5,8.3-8.4c2-3.7-0.5-7.7-3.4-10.1
					c-4.3-3.6-11.1-8-16.9-8.3c-0.9,0-1,1.2-0.2,1.5c4.8,1.5,9.4,4.4,13.6,7.1c3.1,2,6.6,5.3,5,9.3c-0.6,1.5-2.3,3-3.4,4.1
					c-5.5,5.6-11.5,9.8-18.5,13.2C314.1,222.3,314.1,222.5,314.2,222.4L314.2,222.4z"/>
			</g>
		</g>
		<g>
			<g>
				<path class="st0" d="M129.6,162.3c11.5-1.8,22.9-3.8,34.4-5.6c5.1-0.8,10.2-1.6,15.3-2.3c5.9-0.9,12.7-2.7,18.7-1.5
					c5.2,1.1,10.8,4.1,15.8,6c20,7.8,39.9,15.5,59.9,23.3c5.6,2.2,11.3,4.2,16.9,6.4c0.8,0.3,1.1-1,0.3-1.3
					c-29.9-11.6-60.1-22.9-89.7-35.1c-4.1-1.7-8.5-1.2-12.7-0.6c-6.4,0.8-12.8,1.8-19.1,2.8c-13.4,2.1-26.7,4.5-39.9,7.5
					C129.2,161.9,129.3,162.3,129.6,162.3L129.6,162.3z"/>
			</g>
		</g>
		<g>
			<g>
				<path class="st0" d="M225,225.9c6.7-0.4,12.7-3.1,19.1-4.8c5.6-1.5,11.2-2.8,16.8-4.3c6.6-1.8,13.3-3.7,19.9-5.6
					c4.6-1.3,10.6-2.1,13.6-6.2c1-1.4-1.5-2.8-2.3-1.3c-2.2,4-12.1,5.3-16.1,6.5c-6.1,1.8-12.2,3.5-18.4,5.2
					c-11,3.1-21.8,6.7-32.6,10.4C224.9,225.8,224.9,225.9,225,225.9L225,225.9z"/>
			</g>
		</g>
		<g>
			<g>
				<path class="st0" d="M196.1,222.9c9,8.9,23.7,6.4,34.5,2.3c0.6-0.2,0.6-1.2-0.2-1.2c-12-0.2-22.7,5.8-33.9-1.6
					C196.2,222.2,195.8,222.7,196.1,222.9L196.1,222.9z"/>
			</g>
		</g>
		<g>
			<g>
				<path class="st0" d="M287.9,187.4c1.3,0.4,2.8,1.1,3.7,2.1c0.9,1,0,2.4,0,3.6c0,0.6,0.7,0.7,1,0.3c0.8-1.2,1.6-3.1,0.5-4.4
					c-1.1-1.3-3.3-2.2-5-2.5C287.6,186.4,287.3,187.2,287.9,187.4L287.9,187.4z"/>
			</g>
		</g>
		<g>
			<g>
				<path class="st0" d="M127.6,162.2c-3,1-2.5,3.8-2.5,6.5c0,3.1-0.1,6.2,2.7,8.1c0.7,0.5,1.4-0.7,0.7-1.1
					c-2.5-1.7-2.3-4.9-2.3-7.5c-0.1-2.3-0.3-4,1.7-5.6C128.1,162.5,127.9,162.2,127.6,162.2L127.6,162.2z"/>
			</g>
		</g>
		<g>
			<g>
				<path class="st0" d="M194.8,210.9c7.9,7,17.1,6.9,26.9,4.6c7.4-1.8,15.2-3.4,22.1-6.6c0.5-0.2,0.1-1-0.4-0.9
					c-6.8,1.5-13.5,3.6-20.2,5.4c-10.1,2.6-18.9,3.1-27.9-3.2C195,209.9,194.5,210.5,194.8,210.9L194.8,210.9z"/>
			</g>
		</g>
		<g>
			<g>
				<path class="st0" d="M224.3,214.6c13.2-3.2,26.2-7.1,39.3-10.8c6.6-1.9,13.2-3.8,19.8-5.8c3.8-1.1,9.1-1.2,10.1-5.7
					c0.2-1.1-1.1-1.6-1.8-0.7c-1.8,2.6-5.2,3-8.1,3.9c-3,1-5.9,1.9-8.9,2.8c-5.7,1.7-11.4,3.4-17,5c-11.2,3.3-22.6,6.4-33.4,10.9
					C224.1,214.3,224.1,214.6,224.3,214.6L224.3,214.6z"/>
			</g>
		</g>
		<g>
			<g>
				<path class="st0" d="M129.5,162c-2.6,0-2.9,1.8-1.7,3.7c3,4.7,9.8,8,14.3,11c5.2,3.4,10.4,6.9,15.6,10.4
					c13.8,9.2,27.5,19,41.8,27.4c1,0.6,1.8-0.9,0.9-1.5c-11.7-7.7-23.5-15.2-35.2-22.9c-5.2-3.4-10.3-6.8-15.5-10.1
					c-1.5-1-3.1-2-4.6-3c-2.8-1.8-5.6-3.6-8.5-5.4c-1.3-0.8-2.5-1.6-3.7-2.5c-0.3-0.2-8.3-6.5-3.5-6.9
					C129.6,162.2,129.6,162,129.5,162L129.5,162z"/>
			</g>
		</g>
		<g>
			<g>
				<path class="st0" d="M127.1,176c5.8,5,12,8.9,18.4,13c6.5,4.1,12.2,9.3,18.7,13.5c11,7.2,21.4,15.7,32.9,21.9
					c1,0.5,1.8-0.9,0.9-1.5c-10.9-7.2-21.7-14.7-32.7-21.8c-6.2-4-11.7-8.9-17.9-12.9c-6.6-4.3-13.2-8.6-19.9-12.8
					C127.2,175.1,126.8,175.7,127.1,176L127.1,176z"/>
			</g>
		</g>
		<g>
			<g>
				<path class="st0" d="M126.6,163.5c0.7-0.3,1.3-0.5,2.1-0.7c0.8-0.2,1.5-0.3,2.3-0.7c0.3-0.2,0.1-0.6-0.2-0.6
					c-0.9-0.1-1.8,0.1-2.7,0.3c-0.8,0.2-1.2,0.7-1.8,1.2C126.1,163.3,126.4,163.6,126.6,163.5L126.6,163.5z"/>
			</g>
		</g>
		<g>
			<g>
				<path class="st0" d="M136.9,164.9c19.8-3.3,40.3-4.9,59.8-9.6c0.8-0.2,0.4-1.3-0.3-1.2c-19.9,2.8-40,6.2-59.6,10.3
					C136.5,164.6,136.6,165,136.9,164.9L136.9,164.9z"/>
			</g>
		</g>
		<g>
			<g>
				<path class="st0" d="M198.9,203.4c11.6-3,23.1-5.9,34.7-8.7c11.5-2.8,23.5-4.9,34.7-8.7c0.9-0.3,0.5-1.6-0.4-1.4
					c-11.6,2.7-23,6.3-34.6,9.2c-11.6,2.9-23.2,5.7-34.6,9.2C198.5,203.1,198.6,203.5,198.9,203.4L198.9,203.4z"/>
			</g>
		</g>
		<g>
			<g>
				<path class="st0" d="M136.7,164.9c18.9,15,41.2,26.5,61.9,38.7c0.5,0.3,1-0.5,0.5-0.8c-10.7-6.3-21.4-12.6-32-19.1
					c-10.1-6.2-19.8-13.3-30.1-19.2C136.7,164.4,136.5,164.7,136.7,164.9L136.7,164.9z"/>
			</g>
		</g>
		<g>
			<g>
				<path class="st0" d="M196.4,155.1c10.4,4.8,20.9,9.2,31.4,13.7c7.5,3.2,15,6.5,22.6,9.7c5.9,2.5,12,5.8,18.2,7.4
					c0.6,0.2,1-0.7,0.4-1c-6-3.2-12.8-5.3-19.1-8c-7.6-3.2-15.1-6.4-22.6-9.7c-10-4.3-20.1-9.8-30.6-12.8
					C196.2,154.3,195.9,155,196.4,155.1L196.4,155.1z"/>
			</g>
		</g>
		<g>
			<g>
				<path class="st0" d="M242.9,197.1c-1.6,0.2-8.9,1.7-5.9,4.6c3,2.8,8.3,1.7,11.5,0.2c0.4-0.2,0.1-0.8-0.3-0.7
					c-2.8,0.5-5.8,1.6-8.6,0.8c-0.5-0.1-1.5-0.4-1.8-0.7c-1.1-1.5,0.5-1.9,1.2-2.3c1.3-0.6,2.7-1,4-1.6
					C243,197.2,243,197.1,242.9,197.1L242.9,197.1z"/>
			</g>
		</g>
		<g>
			<g>
				<path class="st0" d="M239.4,198.3c3.1-0.9,6.8-2,9.7,0c0.4,0.2,0.7-0.3,0.5-0.6c-2.6-2.6-7.4-0.8-10.3,0.3
					C239.1,198.1,239.2,198.3,239.4,198.3L239.4,198.3z"/>
			</g>
		</g>
		<g>
			<g>
				<path class="st0" d="M246.6,202.2c1.4,0,2.9-0.4,3.5-1.7c0.5-1.1,0.4-2.5-0.8-3c-0.3-0.1-0.4,0.3-0.3,0.5c1.4,1.8-0.8,3.6-2.4,4
					C246.4,201.9,246.4,202.2,246.6,202.2L246.6,202.2z"/>
			</g>
		</g>
		<g>
			<g>
				<path class="st0" d="M198.5,203.6c6.6-1.3,13.5-3.2,19.9-5.1c0.3-0.1,0.2-0.5-0.1-0.5c-6.6,0.9-13.8,2.7-19.9,5.3
					C198.2,203.4,198.3,203.7,198.5,203.6L198.5,203.6z"/>
			</g>
		</g>
	</g>
	<g>
		<g>
			<path class="st0" d="M292.5,189.6c0.4,2.7,0.3,5.3,0.4,8c0.1,2.8,0.3,5.4-1.3,7.8c-0.4,0.6,0.4,1.4,1,1c2.6-1.8,2.6-4.9,2.4-7.8
				c-0.2-3-0.1-6.8-2.1-9.3C292.7,189.2,292.5,189.4,292.5,189.6L292.5,189.6z"/>
		</g>
	</g>
	<g>
		<g>
			<path class="st0" d="M251.7,173c19.3,3.7,38.1,8.7,57.1,13.8c2,0.5,2.7-2.4,0.8-3c-18.6-6.2-38.4-9.2-57.8-11.2
				C251.6,172.6,251.5,173,251.7,173L251.7,173z"/>
		</g>
	</g>
</g>
</svg>
