<?xml version="1.0" encoding="utf-8"?>
<!-- Generator: Adobe Illustrator 19.2.0, SVG Export Plug-In . SVG Version: 6.00 Build 0)  -->
<svg version="1.1" id="Layer_1" xmlns="http://www.w3.org/2000/svg" xmlns:xlink="http://www.w3.org/1999/xlink" x="0px" y="0px"
	 viewBox="0 0 400 300" style="enable-background:new 0 0 400 300;" xml:space="preserve">
<style type="text/css">
	.st0{fill:#010101;}
</style>
<g>
	<g>
		<g>
			<path class="st0" d="M313.8,243.1c5.1-0.3,10-1.1,13.5-5.3c3-3.6,4.1-8.5,2.8-13c-1.1-4-4-6.8-7-9.3c-5.4-4.5-11-8.8-16.8-12.7
				c-17.4-11.7-36.8-20.2-55.3-30c-7.4-3.8-14.7-7.8-21.8-11.9c-1.8-1-3.8-2-5.4-3.3c-1-0.8-1.8-2.1-2.4-3.3c-1.1-2.4-0.4-3.7,0-6.1
				c0.2-1.2,0.4-2.5,0.5-3.6c2.4-20.2-8.8-36.6-22.8-50c-15.8-15-35.9-24.5-57.7-25.7c-19.8-1.1-43.1,1.5-54.3,20.4
				c-9.6,16.3-6.9,35.1,4.5,49.6c8,10.3,19.2,16.5,30.5,22.3c12.1,6.2,24.3,10.4,37.7,11.8c6.8,0.7,13.6,0.8,20.4,0.9
				c5.1,0,10.1-0.6,15.2-1.2c4.1-0.4,8.3-1.1,12.4-0.6c5.7,0.8,10.8,4.2,15.3,7.4c12.7,8.9,24.5,19.7,36.5,29.6
				c10.9,8.9,21.5,18.7,33.4,26.1c5.5,3.4,11.3,6.1,17.5,7.8c0.8,0.2,1.2-1.1,0.3-1.3c-13.2-4-24.2-12.4-34.6-21.1
				c-11-9.1-22.1-18.1-33.2-27.2c-9.4-7.7-18.9-17.2-30.4-21.6c-7.2-2.8-14.9-0.9-22.4-0.4c-11,0.9-21.8,0.8-32.7-0.5
				c-14.2-1.8-26.9-7.2-39.5-13.9c-11-5.9-21.1-12.8-28.1-23.4c-5.6-8.4-8.6-18.7-6.9-28.8c1.7-9.8,6.9-18.6,14.7-24.6
				c7.4-5.7,15.3-8,24.3-8.8c12.2-1.2,24.7-0.8,36.6,2.4c8.5,2.3,16.8,6.5,24.3,11.2c10.3,6.5,19.6,15.6,26.7,25.4
				c5.7,7.8,9,16.2,9.6,25.7c0.2,3.3,0.1,6.5-0.3,9.9c-0.5,3.2-1.6,5.4-0.2,8.8c2.1,4.9,7.3,7,11.7,9.4c12.9,7.1,26,14.1,39.4,20.6
				c11.2,5.4,22.2,11,32.7,17.7c6.1,3.8,11.8,8,17.3,12.4c4.1,3.3,8.3,6.7,9,12.4c1.1,9.6-7.1,14.3-15.3,14.9
				C313.4,242.4,313.4,243.1,313.8,243.1L313.8,243.1z"/>
		</g>
	</g>
	<g>
		<g>
			<path class="st0" d="M127.1,75.6c18.7,0.4,37.8,5.2,53.8,15.2c10.6,6.6,21.3,15.8,26.2,27.5c3.7,9,6.7,19.4,0,27.7
				c-8.6,10.4-21,12.7-33.8,13.6c-9.1,0.6-17.6-0.6-26.4-2.3c-10-1.9-19.2-6-28.3-10.7c-10-5.2-17-13.9-22.3-23.6
				c-4.7-8.6-6.5-18-4.2-27.6c2.6-11.1,14.1-17.5,24.8-18.9c1.1-0.1,0.6-1.7-0.4-1.6c-8.7,1.2-19.5,6.4-23.7,14.5
				C89,97,88.9,107,90.9,115.2c1.1,4.5,3.9,8.7,6.2,12.6c2.9,4.9,6.3,9.1,10.5,12.8c4.6,4,9.6,6.8,15.1,9.5
				c5.7,2.7,11.5,5.5,17.4,7.2c8,2.3,16.8,4.4,25.2,4.5c12.1,0.2,26.7-0.8,36.7-8.3c3.7-2.8,8.5-7.1,9.9-11.6
				c1.2-3.7,1.2-8.6,0.8-12.4c-0.7-5.4-3.3-11.2-5.9-16.1c-3.3-6.1-8.4-11.2-13.6-15.8c-9.5-8.2-20.6-14.3-32.6-18.2
				c-11-3.6-22.1-6.4-33.7-4.5C126.6,75.1,126.7,75.7,127.1,75.6L127.1,75.6z"/>
		</g>
	</g>
	<g>
		<g>
			<path class="st0" d="M132.1,158c-7-2.6-13.6-6.2-19.9-10.3c-7.5-4.7-14.6-9.8-19-17.6c-7-12.8-8.6-27.7-3.7-41.5
				c0.2-0.5-0.6-0.9-0.9-0.4c-6.4,13.2-4.3,29.5,3,41.9c4.4,7.4,10.8,12.4,17.9,16.9s14.5,8.4,22.3,11.2
				C132.1,158.5,132.3,158.1,132.1,158L132.1,158z"/>
		</g>
	</g>
	<g>
		<g>
			<path class="st0" d="M193.3,169.3c4.6-1.3,9-2.6,13.7-2c4.2,0.6,8.6,2,12.4,3.8c8.6,4,15.5,11,22.8,16.8
				c14.4,11.5,29.2,22.6,44.3,33.2c8.2,5.9,17.6,14.9,28.3,15.4c4.9,0.1,10.3-1.8,12-6.9c1.6-4.7-0.4-9.5-3.5-13.1
				c-6.4-7.4-15.3-13-23.8-17.7c-0.4-0.1-0.7,0.4-0.4,0.6c6.9,3.8,14,8.6,19.6,14.2c4,4,8.6,10.1,5.7,16.2
				c-3.5,7.5-13.6,4.6-19.2,1.6c-10.3-5.4-19.7-13.2-29.1-20.2c-14.4-10.5-28.4-21.6-42.1-33c-6-5-12.1-9.1-19.7-11.3
				c-7.6-2.2-14.2-1.2-21.3,1.9C193,169.2,193.1,169.4,193.3,169.3L193.3,169.3z"/>
		</g>
	</g>
	<g>
		<g>
			<path class="st0" d="M160.6,164.9c17.9,3.3,41.8-0.2,52.6-16.4c0.1-0.1-0.1-0.2-0.2-0.1c-6.2,8.3-15.5,12.9-25.5,14.8
				c-9.1,1.7-17.9,0.9-27,1.1C160.3,164.4,160.4,164.8,160.6,164.9L160.6,164.9z"/>
		</g>
	</g>
	<g>
		<g>
			<path class="st0" d="M216.6,143.1c4.5-7.9,3.1-18.8-0.8-26.7c-0.2-0.5-0.9-0.1-0.6,0.4c3.5,8.2,5.2,17.8,1.4,26.2
				C216.3,143.1,216.4,143.2,216.6,143.1L216.6,143.1z"/>
		</g>
	</g>
	<g>
		<g>
			<path class="st0" d="M108.9,77.8c3.9-0.6,7.8-1.5,11.8-1.9c5.4-0.4,10.7,0,16.1,0.1c1.1,0.1,1.1-1.5,0-1.6
				c-9.5-1.1-19.4-1.3-27.9,3.2C108.7,77.6,108.8,77.7,108.9,77.8L108.9,77.8z"/>
		</g>
	</g>
	<g>
		<g>
			<path class="st0" d="M120.3,148.2c1.1-1.7,1.2-3.5,0.4-5.5c-0.4-1.2-1.1-2.3-1.6-3.4c-1.2-3.2-0.1-4.7,1-7.6
				c2-5.7-4.5-11.2-1.3-16.5c1.5-2.5,3-4,3.1-7.1c0.1-3.3-1.1-6.3-1.1-9.5c-0.2-3.7,2.3-6.7,2.3-10.4c-0.1-4.5-1.1-9.8-2.4-14
				c-0.2-0.8-1.6-0.7-1.5,0.2c0.1,4.7,1.9,9.3,1.9,13.8c0,3.5-2.3,6.4-2.3,9.9c0.1,3,1.2,6,1.3,9.1c0.1,4-3.2,6-3.9,9.7
				c-0.4,2.3,0.4,4.5,1.1,6.5c0.4,1.3,1,2.5,1.3,4c0.5,2.6-0.4,4-1.3,6.3C115.1,139,120.9,142.9,120.3,148.2
				C120,148.3,120.3,148.3,120.3,148.2L120.3,148.2z"/>
		</g>
	</g>
	<g>
		<g>
			<path class="st0" d="M132.6,153.1c-1.6-4.5-2.5-8.6-1.1-13.3c0.8-3.1,2-5.9,1.9-9.3c-0.2-6.3-4.5-12.8-2.5-19
				c1.1-3.4,4.2-5.8,5.7-9.1c1.1-2.5,1.3-5,1.1-7.6c-0.4-6.4-3.2-12.5-2.8-19c0.1-1.5-2.1-1.4-2.3,0c-0.4,6.5,2.3,12.6,2.8,19
				c0.4,4.7-1.3,7.7-4.1,11.5c-1.7,2.3-2.9,4.5-3.3,7.4c-0.6,6.8,4,13,2.8,19.8c-0.5,3.2-2.1,6.2-2.4,9.5c-0.4,3.9,1.1,7.1,3,10.3
				C131.9,153.9,132.8,153.6,132.6,153.1L132.6,153.1z"/>
		</g>
	</g>
	<g>
		<g>
			<path class="st0" d="M162.3,160.3c-0.8-13.2-0.3-26.2,0.4-39.4c0.3-6.4,0.8-12.8,1.1-19.2c0.4-6.5,1.6-13.8,0.8-20.3
				c-0.1-0.8-1.3-0.7-1.6,0c-1.6,6.4-1.1,13.6-1.4,20.2c-0.4,6.6-0.8,13.2-1.1,19.9c-0.6,12.6-2.4,26.3,1.2,38.7
				C161.8,160.7,162.3,160.6,162.3,160.3L162.3,160.3z"/>
		</g>
	</g>
	<g>
		<g>
			<path class="st0" d="M186.2,159c1.3-10,1.3-20.4,2.2-30.5c0.4-5.1,1-10.2,1.6-15.3c0.6-5.2,1.8-10.6,1.9-15.9
				c0-0.7-1.1-0.8-1.2-0.2c-1.4,4.7-1.6,9.8-2.3,14.7c-0.6,5.1-1.1,10.2-1.6,15.3c-0.9,10.4-2.1,21.2-1.6,31.8
				C185.4,159.4,186.2,159.6,186.2,159L186.2,159z"/>
		</g>
	</g>
	<g>
		<g>
			<path class="st0" d="M181.1,160c1.4-11,1.5-22.3,2.5-33.4c0.6-5.4,1.1-10.8,1.7-16.1c0.6-5.4,2-11.2,2-16.7
				c0-0.7-1.1-0.8-1.2-0.2c-1.4,4.8-1.6,10.3-2.3,15.3c-0.7,5.7-1.3,11.2-1.8,16.9c-1,11.3-2.3,22.8-1.8,34.2
				C180.2,160.6,181.1,160.5,181.1,160L181.1,160z"/>
		</g>
	</g>
	<g>
		<g>
			<path class="st0" d="M189.7,158.1c1.3-9.1,1.7-18.4,2.8-27.6c1.1-9.7,2.9-19.2,3.9-28.9c0.1-0.6-0.9-0.6-1.1-0.1
				c-2,9.1-2.8,18.4-3.8,27.6c-1,9.6-2.3,19.4-2.1,29.1C189.6,158.1,189.8,158.1,189.7,158.1L189.7,158.1z"/>
		</g>
	</g>
</g>
</svg>
