<?xml version="1.0" encoding="utf-8"?>
<!-- Generator: Adobe Illustrator 19.2.0, SVG Export Plug-In . SVG Version: 6.00 Build 0)  -->
<svg version="1.1" id="Layer_1" xmlns="http://www.w3.org/2000/svg" xmlns:xlink="http://www.w3.org/1999/xlink" x="0px" y="0px"
	 viewBox="0 0 400 80" style="enable-background:new 0 0 400 80;" xml:space="preserve">
<style type="text/css">
	.st0{fill:#F37466;}
	.st1{font-family:'Ubuntu-Medium';}
	.st2{font-size:17.2452px;}
</style>
<g>
	<g>
		<g>
			<path class="st0" d="M217,28.3c-0.5-0.3-2.3-1.3-2.9-1.6c-1.4-0.6-2.8-1-4.3-1.5l0-6.1l-0.1,0c-1.3-0.3-1.8-0.5-2.8-0.8
				c-1.1-0.4-2.3-1-3.2-1.8c-1.2-1.2-0.7-3.6,0.4-5.5c1.1-0.2,2.3-0.4,3.6-0.4c3,0,7.2,1.2,10.6,2.6l0-2.1
				c-2.8-1.9-6.5-3.1-10.9-3.1c-8,0-12,4.1-11.9,9c0,3.1,1.3,5.1,3.3,6.6c0,0.2,2.6,1.7,2.6,1.6c1.6,0.7,3.6,1.2,5.4,1.8l0,7.1
				l1.3,0.2c1.3,0.3,3.8,1,4.9,2.8c0.7,1.2,0.8,2.9,0.1,4.8l0.1,0c-1.6,0.7-3.6,1.1-5.8,1.1c-3,0-7.3-0.5-13.1-3.7l0,2.2
				c3,1.9,7.4,3.9,13.1,3.9c6.9,0,13.1-3.5,13.1-10.1C220.8,32.1,219.3,29.9,217,28.3z M206.9,24.4c-5-1.5-8.6-2.9-8.6-7.1
				c0-1.7,0.7-3.4,2.3-4.6c-0.6,2.4-0.1,4.5,1.3,5.9c1.4,1.4,3.4,2.2,5,2.7V24.4z M216.6,39.9c0.1-1.5-0.3-2.9-1-4
				c-1.3-2.3-3.9-3.4-5.7-3.9v-4c4.8,1.4,8.3,3,8.3,7.5C218.2,37.3,217.6,38.8,216.6,39.9z"/>
			<path class="st0" d="M349.7,15.5c0,4.3,0.1,13.8,0,15.7L333,8.8h-0.2l0,0l-2.5,0l0,0l-0.1,0v36.5c0,0,0.6,0,2.7,0
				c2.1,0,7.2-0.8,7.2-6.7c0-4.3-0.1-13.8,0-15.7l16.7,22.4l0.2,0l0,0l2.5,0v0l0.1,0V8.8c0,0-0.6,0-2.7,0
				C354.8,8.8,349.7,9.6,349.7,15.5z M337.3,37.7c0,4-1.1,4.7-4.1,4.7l0-18.9l4.1,5.1L337.3,37.7z M337.3,24.1l-4.1-5.1l0-5.4
				l4.2,5.6L337.3,24.1z M352.6,35.1v-5l4.1,5.1l0,5.4L352.6,35.1z M352.6,25.4v-9c0-4,1.1-4.8,4.1-4.8l0,18.9L352.6,25.4z"/>
			<path class="st0" d="M241.5,8.5c-10.3,0-18,8-18,18.7c0,10.7,7.7,18.7,18,18.7c10.2,0,18-7.9,18-18.7
				C259.5,16.5,251.7,8.5,241.5,8.5z M230.6,38.7c-3.2-2.9-4.3-6.9-4.3-11.5c0-4.6,1.1-8.6,4.3-11.5L230.6,38.7z M249.2,41.1
				c-2.3,1.7-4.9,2.1-7.7,2.1c-2.8,0-5.5-0.4-7.8-2.2l-0.1,0l0-12.5h3.7c0.6,1.8,2.2,3,4.2,3c2,0,3.6-1.3,4.2-3l3.5,0L249.2,41.1z
				 M249.2,25.8l-3.5,0c-0.6-1.8-2.2-3-4.2-3c-1.9,0-3.6,1.3-4.2,3l-3.7,0V13.1c2.4-1.3,5-2.1,7.9-2.1c2.8,0,5.3,0.7,7.7,2
				L249.2,25.8z M252.1,38.8V15.6c2.7,2.9,4.5,6.9,4.5,11.6C256.6,31.9,254.8,35.9,252.1,38.8z"/>
			<path class="st0" d="M382,8.5c-10.3,0-18,8-18,18.7c0,10.8,7.7,18.7,18,18.7c10.2,0,18-8,18-18.7C400,16.5,392.2,8.5,382,8.5z
				 M371.1,38.7c-3.2-2.9-4.3-6.9-4.3-11.5c0-4.6,1.1-8.6,4.3-11.5V38.7z M389.7,41.1c-2.2,1.7-4.9,2.1-7.7,2.1
				c-2.8,0-5.5-0.3-7.8-2.2l-0.1,0l0-12.5h3.7c0.6,1.8,2.2,3,4.2,3c1.9,0,3.6-1.3,4.2-3h3.5L389.7,41.1z M389.7,25.8l-3.5,0
				c-0.6-1.8-2.2-3-4.2-3c-1.9,0-3.6,1.3-4.2,3l-3.7,0l0-12.8c2.4-1.3,5-2.1,7.9-2.1c2.8,0,5.3,0.7,7.7,2V25.8z M392.6,38.8l0-23.2
				c2.7,2.9,4.5,6.9,4.5,11.6C397.1,31.9,395.3,35.9,392.6,38.8z"/>
			<path class="st0" d="M307.3,9L291,45.4l0.1,0c0,0,1.7,0,3,0c5.1-0.1,7.3-2.2,8.3-4.3c0.6-1.3,6.2-14,6.2-14l6.9,15.4
				c0,0-3.9,0-7.4,0c-3.5,0-4.5,2.9-4.5,2.9l22.5,0L309.7,9L307.3,9z M299.8,40c-0.7,1.4-1.8,2.5-4.3,2.6l9.8-22l1.6,3.6L299.8,40z
				 M318.4,42.5l-11.4-25.7l1.7-3.6l13,29.3L318.4,42.5z"/>
			<path class="st0" d="M273.4,42.4c0,0,0-21.2,0-27.8c0-6.3-5-5.7-9.8-5.7l0,36.3h23.7l-0.2-2.9L273.4,42.4z M270.6,16.3
				c0,2.8,0,12.5,0,19.3l-4.1,0V12.1C270.2,12.1,270.6,13.1,270.6,16.3z M266.5,42.4l0-3.9l4.1,0c0,2.4,0,3.9,0,3.9L266.5,42.4z"/>
		</g>
		<g>
			<path class="st0" d="M86.7,8.7l0,36.3l23.7,0v-2.9l-13.9,0c0,0,0-21.2,0-27.8C96.5,8.1,91.6,8.7,86.7,8.7z M93.7,16.1
				c0,2.8,0,12.5,0,19.2l-4.1,0l0-23.4C93.2,11.9,93.7,12.9,93.7,16.1z M89.6,42.2l0-4l4.1,0c0,2.4,0,4,0,4H89.6z"/>
			<path class="st0" d="M82.5,39.4c0-6.6-0.1-30.7-0.1-30.7h-9.8v36.3C77.6,45.1,82.5,45.7,82.5,39.4z M79.7,11.6c0,0,0,1.7,0,4.2
				l-4.1,0v-4.2L79.7,11.6z M75.6,41.9l0-23.3l4.1,0c0,6.7,0,16.2,0,19.1C79.7,40.9,79.2,41.9,75.6,41.9z"/>
			<path class="st0" d="M156.3,8.3c-10.3,0-18,8-18,18.7c0,10.8,7.8,18.7,18,18.7c10.2,0,18-8,18-18.7
				C174.2,16.3,166.4,8.3,156.3,8.3z M145.4,38.5c-3.2-2.9-4.3-6.9-4.3-11.5c0-4.6,1.1-8.6,4.3-11.5L145.4,38.5z M163.9,40.8
				c-2.3,1.7-4.9,2.1-7.7,2.1c-2.9,0-5.5-0.3-7.8-2.1l-0.1,0l0-12.5l3.7,0c0.6,1.8,2.2,3,4.2,3c2,0,3.6-1.3,4.2-3l3.5,0V40.8z
				 M163.9,25.6l-3.5,0c-0.6-1.8-2.2-3-4.2-3c-1.9,0-3.6,1.3-4.2,3l-3.7,0V12.8c2.4-1.3,5-2.1,7.9-2.1c2.8,0,5.3,0.7,7.7,2
				L163.9,25.6z M166.8,38.6V15.4c2.7,2.9,4.5,6.9,4.5,11.6C171.3,31.6,169.6,35.7,166.8,38.6z"/>
			<path class="st0" d="M69.3,34.9c0-6.6,0-26,0-26l-9.7,0l0,33.5c-1.7,0.6-3.5,0.8-5.3,0.8c-1.9,0-3.7-0.2-5.3-0.8V8.9l-9.7,0
				c0,0,0,19.5,0,26.1c0,1.3,0.3,2.5,0.8,3.5l0,0.2h0.1c1.3,2.5,3.7,4.2,6.1,5.3c0.8,0.4,1.7,0.8,2.6,1.1c0,0,0.1,0,0.2,0.1v0
				c1.7,0.5,3.5,0.8,5.3,0.8c1.9,0,3.7-0.3,5.3-0.8v0c0.1,0,0.1,0,0.2-0.1c0.9-0.3,1.8-0.6,2.6-1.1C65.7,42.4,69.3,39.6,69.3,34.9z
				 M41.9,11.8l4.1,0v24l-4.1,0c0-0.1,0-0.3,0-0.4C41.9,30.8,41.9,11.8,41.9,11.8z M45.9,40.9c-1-0.6-2.1-1.3-2.9-2.2l2.9,0
				L45.9,40.9C45.9,40.9,45.9,40.9,45.9,40.9z M66.4,11.8c0,0,0,19.1,0,23.6c0,0.1,0,0.3,0,0.4l-4.1,0v-24L66.4,11.8z M62.4,40.9
				C62.4,40.9,62.4,40.9,62.4,40.9l-0.1-2.2h2.9C64.5,39.6,63.4,40.3,62.4,40.9z"/>
			<path class="st0" d="M35.8,25.6H17.9l-0.1,2.7h7.8v12.5c0,0-0.9,0.7-1.8,1.1c-1.8,0.8-3.8,1-5.9,1c-2.8,0-5.5-0.4-7.8-2.1l-0.1,0
				v-28c2.4-1.3,5-2.1,7.9-2.1c2.8,0,5.3,0.7,7.7,2c0,0,1.8,0.9,2.9,1.6c0-0.5,0-1.7,0-2.7c-3-2.2-6.5-3.4-10.6-3.4
				c-10.3,0-18,8-18,18.7c0,10.8,7.7,18.7,18,18.7c5.2,0,7.4-1.4,10.6-3.5c4.5-3.3,7.3-8.7,7.3-15.2C35.9,26.3,35.8,25.6,35.8,25.6z
				 M7.1,38.5C4,35.6,2.8,31.6,2.9,26.9c0-4.6,1.1-8.6,4.3-11.5L7.1,38.5z M28.8,38.5V28.3c1,0,2.3-0.1,4.3-0.1
				C32.8,32.3,31.6,35.8,28.8,38.5z"/>
			<path class="st0" d="M114.7,8.7v36.3l23.7,0l0-2.9l-13.9,0c0,0,0-21.2,0-27.8C124.5,8.1,119.6,8.7,114.7,8.7z M121.7,16.1
				c0,2.8,0,12.5,0,19.2l-4.1,0V11.9C121.2,11.9,121.7,12.9,121.7,16.1z M117.6,42.2l0-4h4.1c0,2.4,0,4,0,4H117.6z"/>
		</g>
	</g>
	<text transform="matrix(1 0 0 1 1.02 70.0098)" class="st0 st1 st2">diseño / comunicación visual</text>
</g>
</svg>
