<?xml version="1.0" encoding="utf-8"?>
<!-- Generator: Adobe Illustrator 19.2.0, SVG Export Plug-In . SVG Version: 6.00 Build 0)  -->
<svg version="1.1" id="Layer_1" xmlns="http://www.w3.org/2000/svg" xmlns:xlink="http://www.w3.org/1999/xlink" x="0px" y="0px"
	 viewBox="0 0 400 80" style="enable-background:new 0 0 400 80;" xml:space="preserve">
<style type="text/css">
	.st0{fill:#F37466;}
	.st1{font-family:'Ubuntu-Medium';}
	.st2{font-size:17.2452px;}
</style>
<g>
	<g>
		<g>
			<path class="st0" d="M217,28.3c-0.5-0.3-2.3-1.3-2.9-1.6c-1.4-0.6-2.8-1-4.3-1.5v-6.1h-0.1c-1.3-0.3-1.8-0.5-2.8-0.8
				c-1.1-0.4-2.3-1-3.2-1.8c-1.2-1.2-0.7-3.6,0.4-5.5c1.1-0.2,2.3-0.4,3.6-0.4c3,0,7.2,1.2,10.6,2.6v-2.1c-2.8-1.9-6.5-3.1-10.9-3.1
				c-8,0-12,4.1-11.9,9c0,3.1,1.3,5.1,3.3,6.6c0,0.2,2.6,1.7,2.6,1.6c1.6,0.7,3.6,1.2,5.4,1.8v7.1l1.3,0.2c1.3,0.3,3.8,1,4.9,2.8
				c0.7,1.2,0.8,2.9,0.1,4.8h0.1c-1.6,0.7-3.6,1.1-5.8,1.1c-3,0-7.3-0.5-13.1-3.7v2.2c3,1.9,7.4,3.9,13.1,3.9
				c6.9,0,13.1-3.5,13.1-10.1C220.8,32.1,219.3,29.9,217,28.3z M206.9,24.4c-5-1.5-8.6-2.9-8.6-7.1c0-1.7,0.7-3.4,2.3-4.6
				c-0.6,2.4-0.1,4.5,1.3,5.9c1.4,1.4,3.4,2.2,5,2.7V24.4z M216.6,39.9c0.1-1.5-0.3-2.9-1-4c-1.3-2.3-3.9-3.4-5.7-3.9v-4
				c4.8,1.4,8.3,3,8.3,7.5C218.2,37.3,217.6,38.8,216.6,39.9z"/>
			<path class="st0" d="M349.7,15.5c0,4.3,0.1,13.8,0,15.7L333,8.8h-0.2l0,0h-2.5l0,0h-0.1v36.5c0,0,0.6,0,2.7,0s7.2-0.8,7.2-6.7
				c0-4.3-0.1-13.8,0-15.7l16.7,22.4h0.2l0,0h2.5l0,0h0.1V8.8c0,0-0.6,0-2.7,0C354.8,8.8,349.7,9.6,349.7,15.5z M337.3,37.7
				c0,4-1.1,4.7-4.1,4.7V23.5l4.1,5.1V37.7z M337.3,24.1l-4.1-5.1v-5.4l4.2,5.6L337.3,24.1z M352.6,35.1v-5l4.1,5.1v5.4L352.6,35.1z
				 M352.6,25.4v-9c0-4,1.1-4.8,4.1-4.8v18.9L352.6,25.4z"/>
			<path class="st0" d="M241.5,8.5c-10.3,0-18,8-18,18.7s7.7,18.7,18,18.7c10.2,0,18-7.9,18-18.7C259.5,16.5,251.7,8.5,241.5,8.5z
				 M230.6,38.7c-3.2-2.9-4.3-6.9-4.3-11.5s1.1-8.6,4.3-11.5V38.7z M249.2,41.1c-2.3,1.7-4.9,2.1-7.7,2.1s-5.5-0.4-7.8-2.2h-0.1
				V28.5h3.7c0.6,1.8,2.2,3,4.2,3s3.6-1.3,4.2-3h3.5L249.2,41.1z M249.2,25.8h-3.5c-0.6-1.8-2.2-3-4.2-3c-1.9,0-3.6,1.3-4.2,3h-3.7
				V13.1c2.4-1.3,5-2.1,7.9-2.1c2.8,0,5.3,0.7,7.7,2V25.8z M252.1,38.8V15.6c2.7,2.9,4.5,6.9,4.5,11.6S254.8,35.9,252.1,38.8z"/>
			<path class="st0" d="M382,8.5c-10.3,0-18,8-18,18.7c0,10.8,7.7,18.7,18,18.7c10.2,0,18-8,18-18.7S392.2,8.5,382,8.5z M371.1,38.7
				c-3.2-2.9-4.3-6.9-4.3-11.5s1.1-8.6,4.3-11.5V38.7z M389.7,41.1c-2.2,1.7-4.9,2.1-7.7,2.1c-2.8,0-5.5-0.3-7.8-2.2h-0.1V28.5h3.7
				c0.6,1.8,2.2,3,4.2,3c1.9,0,3.6-1.3,4.2-3h3.5L389.7,41.1z M389.7,25.8h-3.5c-0.6-1.8-2.2-3-4.2-3c-1.9,0-3.6,1.3-4.2,3h-3.7V13
				c2.4-1.3,5-2.1,7.9-2.1c2.8,0,5.3,0.7,7.7,2L389.7,25.8L389.7,25.8z M392.6,38.8V15.6c2.7,2.9,4.5,6.9,4.5,11.6
				S395.3,35.9,392.6,38.8z"/>
			<path class="st0" d="M307.3,9L291,45.4h0.1c0,0,1.7,0,3,0c5.1-0.1,7.3-2.2,8.3-4.3c0.6-1.3,6.2-14,6.2-14l6.9,15.4
				c0,0-3.9,0-7.4,0s-4.5,2.9-4.5,2.9h22.5L309.7,9H307.3z M299.8,40c-0.7,1.4-1.8,2.5-4.3,2.6l9.8-22l1.6,3.6L299.8,40z
				 M318.4,42.5L307,16.8l1.7-3.6l13,29.3H318.4z"/>
			<path class="st0" d="M273.4,42.4c0,0,0-21.2,0-27.8c0-6.3-5-5.7-9.8-5.7v36.3h23.7l-0.2-2.9L273.4,42.4z M270.6,16.3
				c0,2.8,0,12.5,0,19.3h-4.1V12.1C270.2,12.1,270.6,13.1,270.6,16.3z M266.5,42.4v-3.9h4.1c0,2.4,0,3.9,0,3.9H266.5z"/>
		</g>
		<g>
			<path class="st0" d="M86.7,8.7V45h23.7v-2.9H96.5c0,0,0-21.2,0-27.8C96.5,8.1,91.6,8.7,86.7,8.7z M93.7,16.1c0,2.8,0,12.5,0,19.2
				h-4.1V11.9C93.2,11.9,93.7,12.9,93.7,16.1z M89.6,42.2v-4h4.1c0,2.4,0,4,0,4H89.6z"/>
			<path class="st0" d="M82.5,39.4c0-6.6-0.1-30.7-0.1-30.7h-9.8V45C77.6,45.1,82.5,45.7,82.5,39.4z M79.7,11.6c0,0,0,1.7,0,4.2
				h-4.1v-4.2H79.7z M75.6,41.9V18.6h4.1c0,6.7,0,16.2,0,19.1C79.7,40.9,79.2,41.9,75.6,41.9z"/>
			<path class="st0" d="M156.3,8.3c-10.3,0-18,8-18,18.7c0,10.8,7.8,18.7,18,18.7s18-8,18-18.7C174.2,16.3,166.4,8.3,156.3,8.3z
				 M145.4,38.5c-3.2-2.9-4.3-6.9-4.3-11.5s1.1-8.6,4.3-11.5V38.5z M163.9,40.8c-2.3,1.7-4.9,2.1-7.7,2.1c-2.9,0-5.5-0.3-7.8-2.1
				h-0.1V28.3h3.7c0.6,1.8,2.2,3,4.2,3s3.6-1.3,4.2-3h3.5L163.9,40.8L163.9,40.8z M163.9,25.6h-3.5c-0.6-1.8-2.2-3-4.2-3
				c-1.9,0-3.6,1.3-4.2,3h-3.7V12.8c2.4-1.3,5-2.1,7.9-2.1c2.8,0,5.3,0.7,7.7,2V25.6z M166.8,38.6V15.4c2.7,2.9,4.5,6.9,4.5,11.6
				C171.3,31.6,169.6,35.7,166.8,38.6z"/>
			<path class="st0" d="M69.3,34.9c0-6.6,0-26,0-26h-9.7v33.5c-1.7,0.6-3.5,0.8-5.3,0.8c-1.9,0-3.7-0.2-5.3-0.8V8.9h-9.7
				c0,0,0,19.5,0,26.1c0,1.3,0.3,2.5,0.8,3.5v0.2h0.1c1.3,2.5,3.7,4.2,6.1,5.3c0.8,0.4,1.7,0.8,2.6,1.1c0,0,0.1,0,0.2,0.1l0,0
				c1.7,0.5,3.5,0.8,5.3,0.8c1.9,0,3.7-0.3,5.3-0.8l0,0c0.1,0,0.1,0,0.2-0.1c0.9-0.3,1.8-0.6,2.6-1.1C65.7,42.4,69.3,39.6,69.3,34.9
				z M41.9,11.8H46v24h-4.1c0-0.1,0-0.3,0-0.4C41.9,30.8,41.9,11.8,41.9,11.8z M45.9,40.9c-1-0.6-2.1-1.3-2.9-2.2h2.9V40.9
				L45.9,40.9z M66.4,11.8c0,0,0,19.1,0,23.6c0,0.1,0,0.3,0,0.4h-4.1v-24L66.4,11.8z M62.4,40.9L62.4,40.9l-0.1-2.2h2.9
				C64.5,39.6,63.4,40.3,62.4,40.9z"/>
			<path class="st0" d="M35.8,25.6H17.9l-0.1,2.7h7.8v12.5c0,0-0.9,0.7-1.8,1.1c-1.8,0.8-3.8,1-5.9,1c-2.8,0-5.5-0.4-7.8-2.1H10v-28
				c2.4-1.3,5-2.1,7.9-2.1c2.8,0,5.3,0.7,7.7,2c0,0,1.8,0.9,2.9,1.6c0-0.5,0-1.7,0-2.7c-3-2.2-6.5-3.4-10.6-3.4
				c-10.3,0-18,8-18,18.7c0,10.8,7.7,18.7,18,18.7c5.2,0,7.4-1.4,10.6-3.5c4.5-3.3,7.3-8.7,7.3-15.2C35.9,26.3,35.8,25.6,35.8,25.6z
				 M7.1,38.5C4,35.6,2.8,31.6,2.9,26.9c0-4.6,1.1-8.6,4.3-11.5L7.1,38.5z M28.8,38.5V28.3c1,0,2.3-0.1,4.3-0.1
				C32.8,32.3,31.6,35.8,28.8,38.5z"/>
			<path class="st0" d="M114.7,8.7V45h23.7v-2.9h-13.9c0,0,0-21.2,0-27.8C124.5,8.1,119.6,8.7,114.7,8.7z M121.7,16.1
				c0,2.8,0,12.5,0,19.2h-4.1V11.9C121.2,11.9,121.7,12.9,121.7,16.1z M117.6,42.2v-4h4.1c0,2.4,0,4,0,4H117.6z"/>
		</g>
	</g>
	<text transform="matrix(1 0 0 1 86.3913 70.0098)" class="st0 st1 st2">diseño / comunicación visual</text>
</g>
</svg>
