<?xml version="1.0" encoding="utf-8"?>
<!-- Generator: Adobe Illustrator 19.2.0, SVG Export Plug-In . SVG Version: 6.00 Build 0)  -->
<svg version="1.1" id="Layer_1" xmlns="http://www.w3.org/2000/svg" xmlns:xlink="http://www.w3.org/1999/xlink" x="0px" y="0px"
	 viewBox="0 0 400 400" style="enable-background:new 0 0 400 400;" xml:space="preserve">
<style type="text/css">
	.st0{fill:#D1D1D0;}
	.st1{fill:#444344;}
	.st2{fill:#EE4423;}
</style>
<g>
	<path class="st0" d="M208.7,85.7l0.8-3.9c0,0,1-2.3,1.8-3.5c0.8-1.1,3-4.6,3-4.6s-3.5,0.1-4.8-0.4c-1.3-0.5-1.3-1.5-1.8-0.5
		c-0.5,1-3.5-1.1-3.5,0c0,1.3-0.4,3.9-0.4,3.9l0.1,1.9c-0.1,0.4,0.5,3,0,4.3c-0.5,1.3-1.8,5.1-1.5,6.5c0.3,1.8-2.3,7.3-2.2,9.8
		c0.1,1-2.7,2.8-2.9,4.1l-1,2c0,0-3,2.8-3.3,3.8c-0.3,1.1-1.1,2.8-1.4,2.7c0,0-2.3,1.1-3.7,2.2c-1.4,1-3.2,3.8-4.9,4.8
		s-4.1,1.6-4.1,1.6L176,119c0,0-4.3-3.8-6.2-4.2c-1.5-0.3-2.4-0.5-3.4-1.6c-1.1-1-1.9-2.8-3.2-3.3c-1.6-0.6-4.6-1.9-4.6-1.9
		s-0.1-0.9-1.4-0.9c-1.4,0-3.8-0.8-4.9-0.6c-1.3,0.1-0.4-0.3-1.3-0.4c-0.9-0.1-1.6-0.5-2-0.3c-1.3,0.5-0.9,0.9-1.5,1.4
		c-0.4,0.3-1.3-0.3-1.9-0.5c-0.6-0.3-2.4-0.6-2.4-0.1c0,0.5-0.6,1.6-0.6,1.6l-2.3,3.2l-0.6,1.8l-1.3,2.8c0,0,0.8,1,0.6,1.5
		c-0.1,0.5,0,2.2,0,2.2s0.4,4.1,0.5,5.4c0.1,1.4,1.5,2.3,1.5,2.3s1.4,2.9,1.5,3.8c0,0.9,1.4,6.8,1.4,8.6c0,1.9,2,7.2,4.1,8.1
		c2.2,1,8.6,1.9,10.8,2.3c2,0.4,6.8,2.2,7.5,2.8c0.6,0.6,2.7,3,4.2,3.3s4.9,0.3,5.6,0.9c0.6,0.6,5.3,0.1,6.2-0.6
		c1-0.8,3.2-2.5,3.2-2.5s3.7-3.2,2.7-4.3c-1-1.1,2.3-1.9,2.3-1.9l3.5-1.6l2.2-2.8l1.5-1.8c0,0,1.6-6.8,2.9-8.2
		c1-1.1,2.4-1.3,3.8-1.9c0,0,1.6-1.6,2.2-2.9c0.5-1.3,0.8-3.7,0.8-3.7s3.2-7.3,2.9-8.6c-0.3-1.3,0-3,0-3v-3.4c0,0-1.9-6.7-1.4-9.2
		c0.5-2.5-0.1-4.4-0.1-4.4l-0.1-2.9l0.1-3.4L208.7,85.7z M172,131.7c-0.5,0.8-1.8,1.3-3.4,0.9c-1.6-0.4-2.8,1.4-2.8,1.4
		s-1,0.6-1.1,1.5c-0.1,0.9-2.8,1.1-2.8,1.1h-3.2c0,0-1.5-1-2.3-1.5c-0.8-0.5-2.7-0.5-2.7-0.5s-1.4-0.4-1.9,0
		c-0.5,0.4-2.3,0.8-2.3,0.8s-1.1,1.1-2.7,0.6c-1.5-0.5-0.5-1.4-1.4-2.5c0,0-0.1-1-1.1-1.5c-1-0.6-0.9-4.9-1.1-5.7
		c-0.3-0.8-1.3-0.5-1.6-1.4c-0.4-0.9-1.4-3.9-1.4-3.9s-0.4-0.4-1.1-2.2c-0.8-1.8,1.5-4.2,1.5-4.2s1.4-1,1.8-1.3
		c0.4-0.3,0.8-0.6,1.1-1c0.5-0.4,1.6-0.3,2.2-0.1c0.6,0.1,1.1,0,2.4-0.3c1.3-0.3,1.5-0.6,1.5-0.6s0.8,0.4,2.9,0
		c2.2-0.4,5.4,1.6,5.4,1.6s0.8,0.5,2.2,1c1.3,0.5,4.9,2.8,4.9,2.8s1.4,1.3,2.7,2.2c1.3,0.9,4.8,4.6,4.8,6.1s-0.4,2.2-0.5,4.3
		C171.9,131.2,172.4,130.9,172,131.7z"/>
	<path class="st0" d="M145.3,33.8c0,0-0.8,3,1.8,3.8c2.5,0.8,10.3,0.6,12.2-1.3c1.9-1.9,7-6.5,11.8-9.4c4.9-3,12.4-2.3,13.9-1.5
		s3,7.5,0,10.8c-3,3.3-6.2,11.9-6.3,14.2c-0.1,2.3,3.4,7.2,5.2,7.2c1.8,0,6.5,3.9,9.2,4.3c2.9,0.4,6.2,1.1,7.2,2.7
		c1,1.5,3.5,9.5,3.5,9.5s9,1.6,9.8,0.6c0.8-1,5.4-5.8,5.6-6.7c0.1-0.9,4.8-3.4,8.1-1c3.3,2.4,3.7,2.9,4.1-0.5
		c0.4-3.4,2.2-17.4-3.4-30c-5.6-12.7-15.5-20.8-27.1-22.2c-11.7-1.3-25-2.4-38.8,4.3C148.2,25.3,145.3,33.8,145.3,33.8z"/>
	<g>
		<g>
			<path class="st1" d="M210.9,98.7c-0.1,4.8,7.5,5.6,10.5,3.2c2.3-1.9,3.9-4.8,6.2-7c2.2-1.9,4.1-3.8,4.6-6.7
				c0-0.3-0.3-0.3-0.3-0.1c-0.8,3.7-5.2,6-7.6,8.5c-0.9,0.9-1.4,2-2.3,3c-2.4,2.9-9,3.8-10.6-0.9C211.2,98.5,210.9,98.6,210.9,98.7
				L210.9,98.7z"/>
		</g>
	</g>
	<g>
		<g>
			<path class="st1" d="M216.6,70.1c1.5-1.3,3.8-3.2,5.8-3.5c3.9-0.6,7,2,9,4.9c3.3,4.7,3.4,9.4,1.9,14.8c0,0.1,0.3,0.3,0.3,0.1
				c2.7-7.1,2-12.5-3.2-18.1c-4.9-5.2-9.9-2.7-13.9,1.6C216.4,70.1,216.5,70.2,216.6,70.1L216.6,70.1z"/>
		</g>
	</g>
	<g>
		<g>
			<path class="st1" d="M132.5,69.4c1.3-13.6,6.5-28.5,15.3-39c10.3-12.3,28-17,43.6-16.5c13,0.4,27.6,6.2,33.7,18.4
				c5.8,11.8,7.1,23.3,6.3,36.4c0,0.6,1,0.8,1.1,0.1c2-13.9-0.1-26.4-6.7-38.6c-6.1-11.3-20.9-17.2-33.2-17.9
				c-15.6-0.9-34,3.7-44.8,15.5c-9.8,10.5-16.2,27.4-15.7,41.8C132.1,69.6,132.5,69.6,132.5,69.4L132.5,69.4z"/>
		</g>
	</g>
	<g>
		<g>
			<path class="st1" d="M219.9,104.1c-3.7,6.1-1,15.8,0.1,22.4c1.4,8.1,4.2,16.1,9.4,22.6c0.3,0.4,0.9-0.1,0.6-0.5
				c-4.4-6.3-6.7-13-8.1-20.5c-1.1-6.6-3.9-17.2-1.3-23.6C220.8,103.9,220.2,103.7,219.9,104.1L219.9,104.1z"/>
		</g>
	</g>
	<g>
		<g>
			<path class="st1" d="M134.3,97.9c1,2.4,2,4.7,2.5,7.2c0.5,2.5,0.3,5.1,0.5,7.6c0.1,0.9,1.4,0.9,1.4,0c0-2.7,0-5.3-0.8-7.9
				c-0.8-2.4-2-4.8-3.3-7.1C134.5,97.6,134.3,97.7,134.3,97.9L134.3,97.9z"/>
		</g>
	</g>
	<g>
		<g>
			<path class="st1" d="M137.7,109.4c-1.1,4.3-1.9,10-1,14.4c0.4,2.2,1.9,3.8,2.7,5.7c0.9,2,1.4,4.3,2,6.5c0.3,0.6,1.3,0.6,1.3-0.1
				c-0.1-3.9-1.5-7-3.2-10.4c-2.3-4.9-0.3-10.9-1.5-16.1C138.2,109.1,137.8,109.1,137.7,109.4L137.7,109.4z"/>
		</g>
	</g>
	<g>
		<g>
			<path class="st1" d="M140.8,130.8c0.6,8.9,2.2,18.4,12.2,19.8c4.9,0.8,9.8,0.8,13.7,4.3c3,2.8,5.6,6,9,8.5
				c0.4,0.3,0.8-0.3,0.5-0.6c-4.2-3.8-7.3-9.6-12.8-11.9c-3.8-1.5-7.9-1-11.7-2c-8.2-2.2-7.9-11.7-10.3-18.1
				C141.1,130.4,140.8,130.4,140.8,130.8L140.8,130.8z"/>
		</g>
	</g>
	<g>
		<g>
			<path class="st1" d="M147.5,150.3c-0.6,0.4-1.3,0.9-1.9,1.3c-0.8,0.4-1.4,0.8-2.2,1c-0.6,0.3-0.6,1.3,0.1,1.3
				c1.8-0.1,3.8-1.4,4.3-3.3C148,150.3,147.7,150.2,147.5,150.3L147.5,150.3z"/>
		</g>
	</g>
	<g>
		<g>
			<path class="st1" d="M81.1,184.5c15.5-18.2,38.4-24.1,60.4-30.3c0.4-0.1,0.3-0.6-0.1-0.6c-22.6,4.2-47.3,10.4-60.7,30.7
				C80.6,184.4,81,184.6,81.1,184.5L81.1,184.5z"/>
		</g>
	</g>
	<g>
		<g>
			<path class="st1" d="M77.7,187.3c-6,9.8-7.6,19.5-8.6,30.7c-1.4,13.8-6.1,26.7-13.6,38.4c-0.4,0.6,0.5,1,0.9,0.5
				c7.1-9.8,10.5-20.7,12.8-32.3c1-5.2,1.3-10.4,2-15.7c1.1-7.5,3.7-14.4,7.1-21.2C78.7,187.2,77.9,186.8,77.7,187.3L77.7,187.3z"/>
		</g>
	</g>
	<g>
		<g>
			<path class="st1" d="M55,258.5c-2.9,2.4-4.2,5.8-3.5,9.5c0.1,0.9,1.6,0.8,1.6-0.3c0-3.2,0.8-6.2,2.4-9
				C55.7,258.6,55.2,258.4,55,258.5L55,258.5z"/>
		</g>
	</g>
	<g>
		<g>
			<path class="st1" d="M52.1,268.6c8.6,1.5,17.4,2.3,25.6,5.2c7.6,2.7,14.6,7.1,22.8,7.6c0.5,0,0.6-0.8,0.1-0.9
				c-8.5-2.4-16.1-6.6-24.5-9.2c-7.7-2.4-16-3.5-23.9-3.4C51.8,268,51.8,268.6,52.1,268.6L52.1,268.6z"/>
		</g>
	</g>
	<g>
		<g>
			<path class="st1" d="M52.7,268.6c1.1,0.5,2.3,1,3.3,1.8c0.9,0.6,1.8,1,2.9,1c0.8,0,1-1.1,0.1-1.3c-1.3-0.3-2.4-0.6-3.5-1
				c-0.9-0.4-2-0.8-3-0.5C52.7,268.5,52.7,268.6,52.7,268.6L52.7,268.6z"/>
		</g>
	</g>
	<g>
		<g>
			<path class="st1" d="M150.5,149.9c1.8,5.2,2.5,9.8,6.5,13.8c3.9,4.2,8.9,7.2,14.2,9.4c11.7,4.8,23.8,4.3,36,1.6
				c0.6-0.1,0.4-1-0.3-0.9c-11.5,2-23.9,2-35-2.4c-4.8-1.9-9.5-4.6-13.2-8.2c-4.1-3.9-5.6-8.5-8-13.4
				C150.8,149.7,150.5,149.8,150.5,149.9L150.5,149.9z"/>
		</g>
	</g>
	<g>
		<g>
			<path class="st1" d="M230.6,146.4c1.9-0.4,6.3-1.3,8.1-0.3c4.8,3.2-0.4,8-2.5,10c-2.5,2.5-5.3,4.8-8.2,6.8
				c-5.3,3.8-11.1,6.7-17.4,9c-0.3,0.1-0.1,0.6,0.1,0.5c10.8-3.3,22.7-9.6,29.5-18.9c6.1-8.4-3.5-9.5-9.8-7.6
				C230.2,146.1,230.3,146.5,230.6,146.4L230.6,146.4z"/>
		</g>
	</g>
	<g>
		<g>
			<path class="st1" d="M240.3,146.9c1,0,2,1.3,2.7,1.9c0.8,0.8,1.5,1.4,2.3,2.2c1.3,1.3,2.5,2.5,4.1,3.5c0.6,0.4,1.4-0.5,0.8-1
				c-1.6-1.6-3.5-2.8-5.3-4.1c-1.1-0.9-2.8-2.8-4.4-2.7C240.2,146.6,240.2,146.9,240.3,146.9L240.3,146.9z"/>
		</g>
	</g>
	<g>
		<g>
			<path class="st1" d="M248.8,154.4c10.5,2.8,19.6,9.2,29.4,13.7c9.4,4.3,17.6,8.5,25.8,14.9c0.6,0.5,1.3-0.3,0.8-0.8
				c-6.2-8-16.7-11.8-25.6-15.7c-10-4.4-19.4-10.3-30.3-12.4C248.7,154,248.6,154.4,248.8,154.4L248.8,154.4z"/>
		</g>
	</g>
	<g>
		<g>
			<path class="st1" d="M306.7,186.2c9.6,12.4,10.6,28.4,14.6,43.1c4.1,14.6,12.8,30.8,10.5,46.2c-0.1,0.9,1.1,1.3,1.3,0.4
				c1.9-7.3-0.5-14.8-2.4-21.9c-2.3-8.5-5.4-16.7-7.9-25.2c-4.2-14.9-5.1-30.8-16-42.8C306.9,185.9,306.6,186,306.7,186.2
				L306.7,186.2z"/>
		</g>
	</g>
	<g>
		<g>
			<path class="st1" d="M329.5,277.9c1.1,0.3,2.4,0,3.3-1c0.4-0.5-0.3-1.1-0.6-0.6c-0.8,0.6-1.5,1.1-2.5,1.1
				C329.4,277.5,329.3,277.9,329.5,277.9L329.5,277.9z"/>
		</g>
	</g>
	<g>
		<g>
			<path class="st1" d="M281.4,293c7.7-4.6,17.9-4.4,26.5-6.8c8.2-2.3,16.5-5.3,23.9-9.4c0.3-0.1,0.1-0.6-0.3-0.5
				c-9.1,3.4-18,6.7-27.5,9c-7.9,1.9-16.5,2.2-23.2,7C280.8,292.6,281,293.2,281.4,293L281.4,293z"/>
		</g>
	</g>
	<g>
		<g>
			<path class="st1" d="M143.8,78.6c-2.3,5.7-4.3,11.7-6.2,17.5c-0.8,2.3-2.9,5.6-1,7.7c0.3,0.3,0.8-0.1,0.5-0.4
				c-1.3-2.7,2.5-10,3.3-12.5c1.3-4.1,2.5-8.1,3.7-12.2C144.2,78.5,143.9,78.5,143.8,78.6L143.8,78.6z"/>
		</g>
	</g>
	<g>
		<g>
			<path class="st1" d="M148.9,102.9c-3.9,1-8.5,2.2-12-0.4c-0.5-0.4-0.9,0.4-0.6,0.8c3,3.8,9.1,1.5,12.7,0.1
				C149.2,103.3,149.1,102.9,148.9,102.9L148.9,102.9z"/>
		</g>
	</g>
	<g>
		<g>
			<path class="st1" d="M146.2,127.8c3-1.3,6.8,1,9.8-1c0.5-0.4,0.3-1.3-0.4-1c-3,1.1-6.6-0.3-9.5,1.6
				C145.9,127.5,146.1,127.9,146.2,127.8L146.2,127.8z"/>
		</g>
	</g>
	<g>
		<g>
			<path class="st1" d="M178.9,68.7c-0.8-1.5-4.4-0.9-5.7-0.9c-7.2,0.1-14.4,0.8-21.5,1.3c-7.1,0.5-14.2,0.8-21.2,1.6
				c-2.2,0.3-8.4-0.1-10.4,1.6c-1.3,1.1-1,2.2-1,3.5c0.3,4.6,2.4,10.3,4.2,14.3c1,2.4,1.9,5.3,4.4,6.3c2.7,1,8.1-0.4,10.8-1.1
				c0.5-0.1,0.3-0.9-0.3-0.9c-2.5,0.4-5.8,1.6-8.4,1.3c-5.1-0.6-7-7.2-8.1-11.5c-0.5-2-2.9-9.1-1.8-10.6c1.5-2.2,6.2-1.8,8.6-2
				c9.2-1,18.5-1.6,27.9-2.2c4.1-0.3,8-0.4,12-0.5c1.5-0.1,9.2-1.6,10.3-0.1C178.6,69.1,178.9,69,178.9,68.7L178.9,68.7z"/>
		</g>
	</g>
	<g>
		<g>
			<path class="st1" d="M177.9,69.1c13.8,0,27.7-0.4,41.4-1.9c0.3,0,0.3-0.4,0-0.4c-13.8,0-27.7,0.9-41.4,1.9
				C177.6,68.7,177.6,69.1,177.9,69.1L177.9,69.1z"/>
		</g>
	</g>
	<g>
		<g>
			<path class="st1" d="M180.7,71.4c11.7,0.6,23.9,0.1,35.6-1c0.8-0.1,0.8-1.3,0-1.3c-11.8,0.1-23.9,0.6-35.6,1.9
				C180.4,71.1,180.4,71.4,180.7,71.4L180.7,71.4z"/>
		</g>
	</g>
	<g>
		<g>
			<path class="st1" d="M147,78.3c1.4,4.1,4.3,6.7,6.5,10.1c1.3,2,2,5.4,4.7,6.5c1.3,0.5,3.7-0.1,4.9-0.3c3.2-0.1,6.3-0.4,9.5-0.5
				c3.9-0.1,4.9-1.3,5.7-5.4c0.9-5.1,1.1-10.9,0.8-16.1c0-0.4-0.6-0.4-0.6,0c-0.4,4.2-0.6,8.4-0.9,12.4c-0.3,4.3-0.9,7.5-5.7,8.1
				c-3.5,0.4-9,1.3-12.5,0.6c-2.9-0.5-4.3-4.8-6.1-7.2c-2-2.8-4.4-5.3-6-8.5C147.1,78.1,146.8,78.2,147,78.3L147,78.3z"/>
		</g>
	</g>
	<g>
		<g>
			<path class="st1" d="M103.6,233.7c-2.4,6-3.9,11.9-4.1,18.4c-0.1,7.2,2.5,14.4,1,21.7c-0.1,0.8,1,1.1,1.1,0.4
				c1.8-6,0.3-11.4-0.4-17.4c-0.8-7.7,0.3-15.5,2.5-22.8C104.1,233.5,103.8,233.4,103.6,233.7L103.6,233.7z"/>
		</g>
	</g>
	<g>
		<g>
			<path class="st1" d="M100.5,273.6c0.5,4.6-1.3,8.9-0.9,13.4c0.3,3,1.8,5.8,2.5,8.9c2.8,9.2,1.9,19.1,0.4,28.5
				c-2.5,15.7-7.3,31.7-3.2,47.5c0.3,0.9,1.6,0.5,1.5-0.4c-3.9-17.5,1.9-34.6,4.1-51.8c0.9-7.5,1.1-15.1-0.8-22.4
				c-1-4.1-3.3-7.9-3.3-12.2c0-4.1,1.1-7.6,0-11.7C101,273.2,100.5,273.3,100.5,273.6L100.5,273.6z"/>
		</g>
	</g>
	<g>
		<g>
			<path class="st1" d="M279.5,238.9c2.2,20.8,0.9,41.7-1.3,62.5c-0.1,0.9,1.4,1,1.5,0.3c3.5-20.8,2.8-41.8,0.1-62.6
				C279.9,238.6,279.5,238.6,279.5,238.9L279.5,238.9z"/>
		</g>
	</g>
	<g>
		<g>
			<path class="st1" d="M279.4,298.2c-1.4,13.8-0.9,27.5-0.6,41.3c0.3,13.7-0.4,2.9,0.4,16.5c0,1,1.6,1,1.6,0
				c0.5-27.5-0.7-30.3-0.7-57.8C280,297.8,279.5,297.8,279.4,298.2L279.4,298.2z"/>
		</g>
	</g>
	<g>
		<g>
			<path class="st1" d="M56.9,272.7c-5.1,18.4,1.8,36.7,0.3,55.2c-0.9,10.8-4.8,21.2-6.7,31.8c-1.8,9.6-3.2,19.9-2.4,29.6
				c0.1,0.9,1.1,0.8,1.3,0c1-10.6,1.4-21,3.5-31.5c1.9-9.2,5.1-18.1,6.1-27.5c2.3-19.3-5.4-38.3-1.6-57.5
				C57.3,272.6,57,272.4,56.9,272.7L56.9,272.7z"/>
		</g>
	</g>
	<g>
		<g>
			<path class="st1" d="M329.5,280.3c-1.5,7.9,0.4,14.9,0.9,22.8c0.6,9.9-2.4,19.4-4.8,28.8c-2.3,8.9-3.3,11.1-0.6,10.1
				c2.5-9.8,5.8-19.6,7.1-29.6c1.3-10.8-3-21.3-1.9-31.9C330,280,329.5,279.9,329.5,280.3L329.5,280.3z"/>
		</g>
	</g>
	<g>
		<g>
			<path class="st1" d="M157.2,97.4c0.9,2.3,1.3,4.7-1.5,5.4c-0.3,0.1-0.1,0.5,0.1,0.5c1.3-0.3,2.3-0.8,2.5-2.2
				c0.4-1.4-0.3-2.8-0.9-4.1C157.5,97.1,157.1,97.2,157.2,97.4L157.2,97.4z"/>
		</g>
	</g>
	<g>
		<g>
			<path class="st1" d="M141.6,120.3c0.6-0.5,1.3-1,2-1.3c1.3-0.5,2.2,0,3.3,0.1c1.3,0.1,2.4-0.1,3.5-0.8c0.3-0.1,0-0.6-0.3-0.5
				c-1.3,0.6-2.5,0.8-3.9,0.4c-0.6-0.1-1.3-0.4-1.9-0.3c-1.3,0.1-2.2,1.3-2.9,2C141.4,120.2,141.5,120.4,141.6,120.3L141.6,120.3z"
				/>
		</g>
	</g>
	<g>
		<g>
			<path class="st1" d="M149.8,118.8c1.8-0.8,4.9-0.5,7-0.5s3.8,1,5.8,1c0.1,0,0.1-0.3,0-0.3c-2.5-0.3-4.6-1.6-7.2-1.4
				c-2,0.1-3.9-0.4-5.7,0.9C149.4,118.6,149.5,118.9,149.8,118.8L149.8,118.8z"/>
		</g>
	</g>
	<g>
		<g>
			<path class="st1" d="M140.9,121.6c0.4,2.2,1.1,3.4,3.3,3.5c0.9,0,1.6-0.1,2.4-0.4c1.6-0.5,2.7-0.8,4.3-0.5c0.3,0,0.3-0.3,0-0.4
				c-2-0.3-3,0.1-4.9,0.6c-0.8,0.3-1.5,0.3-2.4,0.1c-1.6-0.3-2.2-1.8-2.4-3.2C141.1,121.3,140.9,121.3,140.9,121.6L140.9,121.6z"/>
		</g>
	</g>
	<g>
		<g>
			<path class="st1" d="M162.7,120c-1.5,0.5-2.7,1.5-4.1,2.3c-1.9,1.1-3.8,1.6-6.1,1.5c-0.3,0-0.3,0.4,0,0.4
				c1.9,0.3,3.5,0.3,5.3-0.6c1.8-0.9,3-2.5,4.9-3.4C162.8,120.2,162.8,119.9,162.7,120L162.7,120z"/>
		</g>
	</g>
	<g>
		<g>
			<path class="st1" d="M140.9,119c-1-1.4,0.1-2.4,1.1-3.3c0.8-0.8,1.3-1.5,2.5-1.6c0.1,0,0.1-0.3,0-0.3c-0.6-0.1-1.3,0-1.8,0.4
				c-0.4,0.3-0.5,0.5-0.8,0.8c-0.4,0.4-0.8,0.5-1.1,0.9c-0.9,1-1.1,2.3-0.1,3.3C140.9,119.3,141,119.1,140.9,119L140.9,119z"/>
		</g>
	</g>
	<g>
		<g>
			<path class="st1" d="M145.8,114.2c0.9,0.3,1.9,0.1,2.7-0.5c0.1-0.1,0-0.4-0.3-0.3c-0.8,0.4-1.5,0.6-2.4,0.5
				C145.7,114.1,145.7,114.2,145.8,114.2L145.8,114.2z"/>
		</g>
	</g>
	<g>
		<g>
			<path class="st1" d="M149.5,113.4c3.9-0.8,6.1,0.9,9.2,2.9c1.4,0.9,2.9,1.4,4.3,2.3c0.1,0.1,0.3-0.1,0.1-0.3
				c-0.8-0.6-1.8-1-2.7-1.5c-1.3-0.6-2.2-1.5-3.3-2.3c-2.5-1.6-4.8-2.2-7.7-1.3C149.4,113.4,149.4,113.6,149.5,113.4L149.5,113.4z"
				/>
		</g>
	</g>
	<g>
		<g>
			<path class="st1" d="M213,91.5c0.5-0.3,1.3-0.5,1.9-0.5c0.5,0,1,0.4,1.5,0.5s1,0.3,1.5,0.3c1.6-0.1,2.2-1.3,3.2-2.4
				c0.3-0.4-0.1-0.9-0.5-0.6c-0.5,0.4-0.9,0.8-1.3,1.1c-1,1-1.8,1.3-3.2,1c-1.3-0.3-2-0.1-3.2,0.5C212.8,91.4,212.8,91.5,213,91.5
				L213,91.5z"/>
		</g>
	</g>
	<g>
		<g>
			<path class="st1" d="M218.7,76.7c-0.5-3.4,3.2-6.2,6.5-5.4c2,0.5,3.9,2.7,5.2,4.2c0.4,0.4,0.9-0.1,0.8-0.5
				c-1.5-3-4.7-5.2-8.1-4.3c-2.9,0.8-5.2,3-4.6,6.2C218.4,77,218.8,76.8,218.7,76.7L218.7,76.7z"/>
		</g>
	</g>
	<g>
		<g>
			<path class="st1" d="M231,77c0.1,2.2,0.6,4.2,0,6.3c-0.8,2.4-2.7,4.3-4.3,6.1c-0.1,0.1,0,0.3,0.1,0.1c2-1.8,4.1-3.8,5.1-6.3
				c1-2.3,0.5-4.2-0.4-6.3C231.5,76.6,231,76.6,231,77L231,77z"/>
		</g>
	</g>
	<g>
		<g>
			<path class="st1" d="M216.8,87.2c-0.1-0.8-0.3-1.6,0.1-2.3s1.6,0.3,2,0.6c0.4,0.3,0.6-0.3,0.4-0.5c-0.5-0.6-2-1.6-2.8-0.9
				c-0.8,0.8-0.5,2.2-0.1,3.2C216.5,87.3,216.8,87.3,216.8,87.2L216.8,87.2z"/>
		</g>
	</g>
	<g>
		<g>
			<path class="st1" d="M219.2,78.7c-0.6,0.5-0.3,1.1,0,1.8c0.3,0.5,0.6,1,1,1.4c0.8,0.8,1,1.4,1.1,2.4c0,0.3,0.4,0.3,0.5,0
				c0-0.8,0-1.5-0.5-2.2c-0.5-0.5-2.9-2.3-1.9-3.3C219.6,78.9,219.3,78.6,219.2,78.7L219.2,78.7z"/>
		</g>
	</g>
	<g>
		<g>
			<path class="st1" d="M221.8,75.8c3.2,1.3,3.2,5.2,2.4,8c-0.1,0.3,0.4,0.5,0.5,0.3c1.4-2.8,0.6-7.6-2.8-8.4
				C221.7,75.4,221.7,75.7,221.8,75.8L221.8,75.8z"/>
		</g>
	</g>
	<g>
		<g>
			<path class="st1" d="M222.7,87.3c0.4-0.8,1.5-0.9,2.3-1.1c0.8-0.3,1.3-0.6,1.5-1.4c0.1-0.4-0.5-0.9-0.8-0.5c-1,1.1-2.9,1-3.3,2.7
				C222.2,87.5,222.6,87.6,222.7,87.3L222.7,87.3z"/>
		</g>
	</g>
	<g>
		<g>
			<path class="st1" d="M214.7,90c0.6,0.1,1.4,0.1,2-0.3c0.5-0.3,0.9-0.9,0.6-1.5c-0.1-0.3-0.5-0.3-0.5,0.1c0.1,1.3-1.1,1.4-2,1.4
				C214.6,89.7,214.6,90,214.7,90L214.7,90z"/>
		</g>
	</g>
	<path class="st1" d="M120.5,72.4c0,0,3.9-1.1,21.8-2.3c17.7-1.1,31.7-1.9,31.7-1.9s1.1-0.3,2.7-0.3c0.3,0,1.1,0.4,1.4,0.4
		c1,0,1.6,0,2.8,0.1c3.4,0.1,40.9-2.3,40.9-2.3l-4.4,3.5l-36.9,1.9c0,0-1.5,0.4-1.6,2.7c-0.1,2.3-0.5,16.9-1.8,17.7
		c-1.3,0.9-15.6,3.4-17.4,2.4c-1.8-1.1-1,0.9-4.6-4.2c-3.5-5.1-7.3-11.9-8.7-12.8c-1.4-0.9-2,0.4-3,3.5c-1,3.2-4.8,14.2-4.8,14.2
		l-4.7,0.8c0,0-6,0.8-6.6,0.4c-0.3-0.1-2.8-3.8-4.4-8.1c-1.9-4.9-2.9-10.6-3.2-11.4C119.2,75.6,118.8,73,120.5,72.4z"/>
	<g>
		<g>
			<g>
				<path class="st1" d="M152.5,103.7c-0.9-0.5-1.6-1.4-2.8-1.3c-1,0-2,0.5-2.8,1c-0.3,0.1-0.3,0.6,0.1,0.8c1.5,0.4,3,0.4,4.6,0.1
					c0.5-0.1,0.3-0.8-0.3-0.8c-1.4,0.3-2.8,0.3-4.2-0.1c0,0.3,0,0.5,0.1,0.8c0.6-0.4,1.5-0.9,2.3-1c1.1-0.3,1.9,0.5,2.9,0.9
					C152.5,104.1,152.8,103.8,152.5,103.7L152.5,103.7z"/>
			</g>
		</g>
		<g>
			<g>
				<path class="st1" d="M149.2,103.8c0.6,0,1.1,0.1,1.8,0c0.5-0.1,0.4-0.6,0-0.8c-0.6-0.3-1.3-0.1-1.9,0.1
					C148.7,103.2,148.7,103.8,149.2,103.8L149.2,103.8z"/>
			</g>
		</g>
		<g>
			<g>
				<path class="st1" d="M148.5,103.8c0.3,0,0.5,0,0.8,0c0.3,0,0.3-0.4,0-0.4s-0.5,0-0.8,0C148.1,103.3,148.1,103.8,148.5,103.8
					L148.5,103.8z"/>
			</g>
		</g>
		<g>
			<g>
				<path class="st1" d="M151,103.7c0.3,0.1,0.5,0.3,0.8,0.3c0.1,0,0.3-0.3,0.1-0.4c-0.3-0.3-0.5-0.4-0.8-0.4
					C150.8,103.1,150.6,103.6,151,103.7L151,103.7z"/>
			</g>
		</g>
		<g>
			<g>
				<path class="st1" d="M151,104.2c0.4,0,1,0,1.4-0.3c0.1-0.1,0-0.3-0.1-0.3c-0.4,0.1-0.8,0.1-1.3,0.3
					C150.8,103.9,150.8,104.2,151,104.2L151,104.2z"/>
			</g>
		</g>
	</g>
	<g>
		<g>
			<path class="st1" d="M101.7,295.8c-1.5,5.8-1.8,12-3.2,18c-1.1,4.7-2.3,9.2-2.9,13.9c-1.4,8.9-2.5,17.7-3.4,26.6
				c-1.4,13,1.7,19.5-4.7,31.4c-0.4,0.6,0.5,1.3,1,0.8c3.8-4.2,3.2-5.4,4.1-10.7c1.1-7.5,0-11.1,0.6-18.6c0.9-9.4,2.8-18.8,4.3-28
				c1.9-10.6,6.8-22.4,4.8-33.3C102.2,295.5,101.7,295.5,101.7,295.8L101.7,295.8z"/>
		</g>
	</g>
	<g>
		<g>
			<path class="st1" d="M281.9,294.2c-0.8,10.4,2.8,20.1,3.3,30.4c0.3,5.2-1.5,12.3,2.3,16.5c0.5,0.5,1.4-0.1,1-0.8
				c-3.8-5.1-1.9-14.2-2.5-20.1c-1-8.9-3.7-17.1-3.5-26.1C282.3,294,281.9,294,281.9,294.2L281.9,294.2z"/>
		</g>
	</g>
	<g>
		<g>
			<path class="st1" d="M281.3,342.1c4.3-0.5,8.7-0.4,13-0.1c0.6,0,0.8-1,0.1-1.1c-4.6-0.8-8.9-0.4-13.3,0.6
				C280.9,341.6,280.9,342.1,281.3,342.1L281.3,342.1z"/>
		</g>
	</g>
	<g>
		<path class="st2" d="M181.3,207l-17-7l-7,17C164,211.8,172.3,208.2,181.3,207z"/>
		<path class="st2" d="M187.9,225.6c-17.4,0-31.6,14.1-31.6,31.6s14.1,31.6,31.6,31.6s31.6-14.1,31.6-31.6S205.4,225.6,187.9,225.6z
			 M200.8,270h-26.5v-25.5h26.5V270z"/>
		<path class="st2" d="M218.7,217l-7-17l-17,7C203.6,208.2,211.8,211.8,218.7,217z"/>
		<path class="st2" d="M228,226.4c5.2,6.9,8.8,15.1,10,24.1l7-17L228,226.4z"/>
		<path class="st2" d="M238,263.8c-1.2,9-4.7,17.2-10,24.1l17-7L238,263.8z"/>
		<path class="st2" d="M194.6,307.2l17,7l7-17C211.8,302.5,203.6,306,194.6,307.2z"/>
		<path class="st2" d="M157.2,297.2l7,17l17-7C172.3,306,164,302.5,157.2,297.2z"/>
		<path class="st2" d="M137.8,263.8l-7,17l17,7C142.6,281,139,272.8,137.8,263.8z"/>
		<path class="st2" d="M147.8,226.4l-17,7l7,17C139,241.5,142.6,233.2,147.8,226.4z"/>
	</g>
</g>
</svg>
