<?xml version="1.0" encoding="utf-8"?>
<!-- Generator: Adobe Illustrator 19.2.0, SVG Export Plug-In . SVG Version: 6.00 Build 0)  -->
<svg version="1.1" id="Layer_1" xmlns="http://www.w3.org/2000/svg" xmlns:xlink="http://www.w3.org/1999/xlink" x="0px" y="0px"
	 viewBox="0 0 400 400" style="enable-background:new 0 0 400 400;" xml:space="preserve">
<style type="text/css">
	.st0{fill:#D1D1D0;}
	.st1{fill:#444344;}
	.st2{fill:#EE4423;}
</style>
<g>
	<path class="st0" d="M217.9,85.7l0.8-3.9c0,0,1-2.3,1.8-3.5c0.8-1.1,3-4.6,3-4.6s-3.5,0.1-4.8-0.4c-1.3-0.5-1.3-1.5-1.8-0.5
		c-0.5,1-3.5-1.1-3.5,0c0,1.3-0.4,3.9-0.4,3.9l0.1,1.9c-0.1,0.4,0.5,3,0,4.3c-0.5,1.3-1.8,5.1-1.5,6.5c0.3,1.8-2.3,7.3-2.2,9.8
		c0.1,1-2.7,2.8-2.9,4.1l-1,2c0,0-3,2.8-3.3,3.8c-0.3,1.1-1.1,2.8-1.4,2.7c0,0-2.3,1.1-3.7,2.2c-1.4,1-3.2,3.8-4.9,4.8
		s-4.1,1.6-4.1,1.6l-2.9-1.3c0,0-4.3-3.8-6.2-4.2c-1.5-0.3-2.4-0.5-3.4-1.6c-1.1-1-1.9-2.8-3.2-3.3c-1.6-0.6-4.6-1.9-4.6-1.9
		s-0.1-0.9-1.4-0.9c-1.4,0-3.8-0.8-4.9-0.6c-1.3,0.1-0.4-0.3-1.3-0.4c-0.9-0.1-1.6-0.5-2-0.3c-1.3,0.5-0.9,0.9-1.5,1.4
		c-0.4,0.3-1.3-0.3-1.9-0.5c-0.6-0.3-2.4-0.6-2.4-0.1c0,0.5-0.6,1.6-0.6,1.6l-2.3,3.2l-0.6,1.8l-1.3,2.8c0,0,0.8,1,0.6,1.5
		c-0.1,0.5,0,2.2,0,2.2s0.4,4.1,0.5,5.4c0.1,1.4,1.5,2.3,1.5,2.3s1.4,2.9,1.5,3.8c0,0.9,1.4,6.8,1.4,8.6c0,1.9,2,7.2,4.1,8.1
		c2.2,1,8.6,1.9,10.8,2.3c2,0.4,6.8,2.2,7.5,2.8s2.7,3,4.2,3.3s4.9,0.3,5.6,0.9s5.3,0.1,6.2-0.6c1-0.8,3.2-2.5,3.2-2.5
		s3.7-3.2,2.7-4.3c-1-1.1,2.3-1.9,2.3-1.9l3.5-1.6l2.2-2.8l1.5-1.8c0,0,1.6-6.8,2.9-8.2c1-1.1,2.4-1.3,3.8-1.9c0,0,1.6-1.6,2.2-2.9
		c0.5-1.3,0.8-3.7,0.8-3.7s3.2-7.3,2.9-8.6c-0.3-1.3,0-3,0-3v-3.4c0,0-1.9-6.7-1.4-9.2c0.5-2.5-0.1-4.4-0.1-4.4l-0.1-2.9l0.1-3.4
		L217.9,85.7z M181.3,131.7c-0.5,0.8-1.8,1.3-3.4,0.9c-1.6-0.4-2.8,1.4-2.8,1.4s-1,0.6-1.1,1.5c-0.1,0.9-2.8,1.1-2.8,1.1H168
		c0,0-1.5-1-2.3-1.5c-0.8-0.5-2.7-0.5-2.7-0.5s-1.4-0.4-1.9,0c-0.5,0.4-2.3,0.8-2.3,0.8s-1.1,1.1-2.7,0.6c-1.5-0.5-0.5-1.4-1.4-2.5
		c0,0-0.1-1-1.1-1.5c-1-0.6-0.9-4.9-1.1-5.7c-0.3-0.8-1.3-0.5-1.6-1.4c-0.4-0.9-1.4-3.9-1.4-3.9s-0.4-0.4-1.1-2.2
		c-0.8-1.8,1.5-4.2,1.5-4.2s1.4-1,1.8-1.3c0.4-0.3,0.8-0.6,1.1-1c0.5-0.4,1.6-0.3,2.2-0.1c0.6,0.1,1.1,0,2.4-0.3
		c1.3-0.3,1.5-0.6,1.5-0.6s0.8,0.4,2.9,0c2.2-0.4,5.4,1.6,5.4,1.6s0.8,0.5,2.2,1c1.3,0.5,4.9,2.8,4.9,2.8s1.4,1.3,2.7,2.2
		s4.8,4.6,4.8,6.1s-0.4,2.2-0.5,4.3C181.1,131.2,181.6,130.9,181.3,131.7z"/>
	<path class="st0" d="M154.5,33.8c0,0-0.8,3,1.8,3.8c2.5,0.8,10.3,0.6,12.2-1.3s7-6.5,11.8-9.4c4.9-3,12.4-2.3,13.9-1.5
		s3,7.5,0,10.8c-3,3.3-6.2,11.9-6.3,14.2c-0.1,2.3,3.4,7.2,5.2,7.2c1.8,0,6.5,3.9,9.2,4.3c2.9,0.4,6.2,1.1,7.2,2.7
		c1,1.5,3.5,9.5,3.5,9.5s9,1.6,9.8,0.6c0.8-1,5.4-5.8,5.6-6.7s4.8-3.4,8.1-1c3.3,2.4,3.7,2.9,4.1-0.5c0.4-3.4,2.2-17.4-3.4-30
		c-5.6-12.7-15.5-20.8-27.1-22.2c-11.7-1.3-25-2.4-38.8,4.3C157.4,25.3,154.5,33.8,154.5,33.8z"/>
	<g>
		<g>
			<path class="st1" d="M220.2,98.7c-0.1,4.8,7.5,5.6,10.5,3.2c2.3-1.9,3.9-4.8,6.2-7c2.2-1.9,4.1-3.8,4.6-6.7
				c0-0.3-0.3-0.3-0.3-0.1c-0.8,3.7-5.2,6-7.6,8.5c-0.9,0.9-1.4,2-2.3,3c-2.4,2.9-9,3.8-10.6-0.9C220.4,98.5,220.2,98.6,220.2,98.7
				L220.2,98.7z"/>
		</g>
	</g>
	<g>
		<g>
			<path class="st1" d="M225.9,70.1c1.5-1.3,3.8-3.2,5.8-3.5c3.9-0.6,7,2,9,4.9c3.3,4.7,3.4,9.4,1.9,14.8c0,0.1,0.3,0.3,0.3,0.1
				c2.7-7.1,2-12.5-3.2-18.1c-4.9-5.2-9.9-2.7-13.9,1.6C225.6,70.1,225.7,70.2,225.9,70.1L225.9,70.1z"/>
		</g>
	</g>
	<g>
		<g>
			<path class="st1" d="M141.7,69.4c1.3-13.6,6.5-28.5,15.3-39c10.3-12.3,28-17,43.6-16.5c13,0.4,27.6,6.2,33.7,18.4
				c5.8,11.8,7.1,23.3,6.3,36.4c0,0.6,1,0.8,1.1,0.1c2-13.9-0.1-26.4-6.7-38.6c-6.1-11.3-20.9-17.2-33.2-17.9
				c-15.6-0.9-34,3.7-44.8,15.5c-9.8,10.5-16.2,27.4-15.7,41.8C141.4,69.6,141.7,69.6,141.7,69.4L141.7,69.4z"/>
		</g>
	</g>
	<g>
		<g>
			<path class="st1" d="M229.2,104.1c-3.7,6.1-1,15.8,0.1,22.4c1.4,8.1,4.2,16.1,9.4,22.6c0.3,0.4,0.9-0.1,0.6-0.5
				c-4.4-6.3-6.7-13-8.1-20.5c-1.1-6.6-3.9-17.2-1.3-23.6C230,103.9,229.4,103.7,229.2,104.1L229.2,104.1z"/>
		</g>
	</g>
	<g>
		<g>
			<path class="st1" d="M143.5,97.9c1,2.4,2,4.7,2.5,7.2c0.5,2.5,0.3,5.1,0.5,7.6c0.1,0.9,1.4,0.9,1.4,0c0-2.7,0-5.3-0.8-7.9
				c-0.8-2.4-2-4.8-3.3-7.1C143.8,97.6,143.5,97.7,143.5,97.9L143.5,97.9z"/>
		</g>
	</g>
	<g>
		<g>
			<path class="st1" d="M146.9,109.4c-1.1,4.3-1.9,10-1,14.4c0.4,2.2,1.9,3.8,2.7,5.7c0.9,2,1.4,4.3,2,6.5c0.3,0.6,1.3,0.6,1.3-0.1
				c-0.1-3.9-1.5-7-3.2-10.4c-2.3-4.9-0.3-10.9-1.5-16.1C147.4,109.1,147.1,109.1,146.9,109.4L146.9,109.4z"/>
		</g>
	</g>
	<g>
		<g>
			<path class="st1" d="M150,130.8c0.6,8.9,2.2,18.4,12.2,19.8c4.9,0.8,9.8,0.8,13.7,4.3c3,2.8,5.6,6,9,8.5c0.4,0.3,0.8-0.3,0.5-0.6
				c-4.2-3.8-7.3-9.6-12.8-11.9c-3.8-1.5-7.9-1-11.7-2c-8.2-2.2-7.9-11.7-10.3-18.1C150.3,130.4,150,130.4,150,130.8L150,130.8z"/>
		</g>
	</g>
	<g>
		<g>
			<path class="st1" d="M156.7,150.3c-0.6,0.4-1.3,0.9-1.9,1.3c-0.8,0.4-1.4,0.8-2.2,1c-0.6,0.3-0.6,1.3,0.1,1.3
				c1.8-0.1,3.8-1.4,4.3-3.3C157.2,150.3,156.9,150.2,156.7,150.3L156.7,150.3z"/>
		</g>
	</g>
	<g>
		<g>
			<path class="st1" d="M90.3,184.5c15.5-18.2,38.4-24.1,60.4-30.3c0.4-0.1,0.3-0.6-0.1-0.6c-22.6,4.2-47.3,10.4-60.7,30.7
				C89.8,184.4,90.2,184.6,90.3,184.5L90.3,184.5z"/>
		</g>
	</g>
	<g>
		<g>
			<path class="st1" d="M86.9,187.3c-6,9.8-7.6,19.5-8.6,30.7c-1.4,13.8-6.1,26.7-13.6,38.4c-0.4,0.6,0.5,1,0.9,0.5
				c7.1-9.8,10.5-20.7,12.8-32.3c1-5.2,1.3-10.4,2-15.7c1.1-7.5,3.7-14.4,7.1-21.2C87.9,187.2,87.1,186.8,86.9,187.3L86.9,187.3z"/>
		</g>
	</g>
	<g>
		<g>
			<path class="st1" d="M64.2,258.5c-2.9,2.4-4.2,5.8-3.5,9.5c0.1,0.9,1.6,0.8,1.6-0.3c0-3.2,0.8-6.2,2.4-9
				C65,258.6,64.5,258.4,64.2,258.5L64.2,258.5z"/>
		</g>
	</g>
	<g>
		<g>
			<path class="st1" d="M61.3,268.6c8.6,1.5,17.4,2.3,25.6,5.2c7.6,2.7,14.6,7.1,22.8,7.6c0.5,0,0.6-0.8,0.1-0.9
				c-8.5-2.4-16.1-6.6-24.5-9.2c-7.7-2.4-16-3.5-23.9-3.4C61,268,61,268.6,61.3,268.6L61.3,268.6z"/>
		</g>
	</g>
	<g>
		<g>
			<path class="st1" d="M61.9,268.6c1.1,0.5,2.3,1,3.3,1.8c0.9,0.6,1.8,1,2.9,1c0.8,0,1-1.1,0.1-1.3c-1.3-0.3-2.4-0.6-3.5-1
				c-0.9-0.4-2-0.8-3-0.5C61.9,268.5,61.9,268.6,61.9,268.6L61.9,268.6z"/>
		</g>
	</g>
	<g>
		<g>
			<path class="st1" d="M159.7,149.9c1.8,5.2,2.5,9.8,6.5,13.8c3.9,4.2,8.9,7.2,14.2,9.4c11.7,4.8,23.8,4.3,36,1.6
				c0.6-0.1,0.4-1-0.3-0.9c-11.5,2-23.9,2-35-2.4c-4.8-1.9-9.5-4.6-13.2-8.2c-4.1-3.9-5.6-8.5-8-13.4
				C160,149.7,159.7,149.8,159.7,149.9L159.7,149.9z"/>
		</g>
	</g>
	<g>
		<g>
			<path class="st1" d="M239.8,146.4c1.9-0.4,6.3-1.3,8.1-0.3c4.8,3.2-0.4,8-2.5,10c-2.5,2.5-5.3,4.8-8.2,6.8
				c-5.3,3.8-11.1,6.7-17.4,9c-0.3,0.1-0.1,0.6,0.1,0.5c10.8-3.3,22.7-9.6,29.5-18.9c6.1-8.4-3.5-9.5-9.8-7.6
				C239.4,146.1,239.5,146.5,239.8,146.4L239.8,146.4z"/>
		</g>
	</g>
	<g>
		<g>
			<path class="st1" d="M249.6,146.9c1,0,2,1.3,2.7,1.9c0.8,0.8,1.5,1.4,2.3,2.2c1.3,1.3,2.5,2.5,4.1,3.5c0.6,0.4,1.4-0.5,0.8-1
				c-1.6-1.6-3.5-2.8-5.3-4.1c-1.1-0.9-2.8-2.8-4.4-2.7C249.4,146.6,249.4,146.9,249.6,146.9L249.6,146.9z"/>
		</g>
	</g>
	<g>
		<g>
			<path class="st1" d="M258,154.4c10.5,2.8,19.6,9.2,29.4,13.7c9.4,4.3,17.6,8.5,25.8,14.9c0.6,0.5,1.3-0.3,0.8-0.8
				c-6.2-8-16.7-11.8-25.6-15.7c-10-4.4-19.4-10.3-30.3-12.4C257.9,154,257.8,154.4,258,154.4L258,154.4z"/>
		</g>
	</g>
	<g>
		<g>
			<path class="st1" d="M315.9,186.2c9.6,12.4,10.6,28.4,14.6,43.1c4.1,14.6,12.8,30.8,10.5,46.2c-0.1,0.9,1.1,1.3,1.3,0.4
				c1.9-7.3-0.5-14.8-2.4-21.9c-2.3-8.5-5.4-16.7-7.9-25.2c-4.2-14.9-5.1-30.8-16-42.8C316.1,185.9,315.8,186,315.9,186.2
				L315.9,186.2z"/>
		</g>
	</g>
	<g>
		<g>
			<path class="st1" d="M338.7,277.9c1.1,0.3,2.4,0,3.3-1c0.4-0.5-0.3-1.1-0.6-0.6c-0.8,0.6-1.5,1.1-2.5,1.1
				C338.6,277.5,338.5,277.9,338.7,277.9L338.7,277.9z"/>
		</g>
	</g>
	<g>
		<g>
			<path class="st1" d="M290.6,293c7.7-4.6,17.9-4.4,26.5-6.8c8.2-2.3,16.5-5.3,23.9-9.4c0.3-0.1,0.1-0.6-0.3-0.5
				c-9.1,3.4-18,6.7-27.5,9c-7.9,1.9-16.5,2.2-23.2,7C290,292.6,290.2,293.2,290.6,293L290.6,293z"/>
		</g>
	</g>
	<g>
		<g>
			<path class="st1" d="M153,78.6c-2.3,5.7-4.3,11.7-6.2,17.5c-0.8,2.3-2.9,5.6-1,7.7c0.3,0.3,0.8-0.1,0.5-0.4
				c-1.3-2.7,2.5-10,3.3-12.5c1.3-4.1,2.5-8.1,3.7-12.2C153.4,78.5,153.1,78.5,153,78.6L153,78.6z"/>
		</g>
	</g>
	<g>
		<g>
			<path class="st1" d="M158.1,102.9c-3.9,1-8.5,2.2-12-0.4c-0.5-0.4-0.9,0.4-0.6,0.8c3,3.8,9.1,1.5,12.7,0.1
				C158.5,103.3,158.3,102.9,158.1,102.9L158.1,102.9z"/>
		</g>
	</g>
	<g>
		<g>
			<path class="st1" d="M155.4,127.8c3-1.3,6.8,1,9.8-1c0.5-0.4,0.3-1.3-0.4-1c-3,1.1-6.6-0.3-9.5,1.6
				C155.2,127.5,155.3,127.9,155.4,127.8L155.4,127.8z"/>
		</g>
	</g>
	<g>
		<g>
			<path class="st1" d="M188.1,68.7c-0.8-1.5-4.4-0.9-5.7-0.9c-7.2,0.1-14.4,0.8-21.5,1.3c-7.1,0.5-14.2,0.8-21.2,1.6
				c-2.2,0.3-8.4-0.1-10.4,1.6c-1.3,1.1-1,2.2-1,3.5c0.3,4.6,2.4,10.3,4.2,14.3c1,2.4,1.9,5.3,4.4,6.3c2.7,1,8.1-0.4,10.8-1.1
				c0.5-0.1,0.3-0.9-0.3-0.9c-2.5,0.4-5.8,1.6-8.4,1.3c-5.1-0.6-7-7.2-8.1-11.5c-0.5-2-2.9-9.1-1.8-10.6c1.5-2.2,6.2-1.8,8.6-2
				c9.2-1,18.5-1.6,27.9-2.2c4.1-0.3,8-0.4,12-0.5c1.5-0.1,9.2-1.6,10.3-0.1C187.9,69.1,188.1,69,188.1,68.7L188.1,68.7z"/>
		</g>
	</g>
	<g>
		<g>
			<path class="st1" d="M187.1,69.1c13.8,0,27.7-0.4,41.4-1.9c0.3,0,0.3-0.4,0-0.4c-13.8,0-27.7,0.9-41.4,1.9
				C186.8,68.7,186.8,69.1,187.1,69.1L187.1,69.1z"/>
		</g>
	</g>
	<g>
		<g>
			<path class="st1" d="M189.9,71.4c11.7,0.6,23.9,0.1,35.6-1c0.8-0.1,0.8-1.3,0-1.3c-11.8,0.1-23.9,0.6-35.6,1.9
				C189.6,71.1,189.6,71.4,189.9,71.4L189.9,71.4z"/>
		</g>
	</g>
	<g>
		<g>
			<path class="st1" d="M156.2,78.3c1.4,4.1,4.3,6.7,6.5,10.1c1.3,2,2,5.4,4.7,6.5c1.3,0.5,3.7-0.1,4.9-0.3c3.2-0.1,6.3-0.4,9.5-0.5
				c3.9-0.1,4.9-1.3,5.7-5.4c0.9-5.1,1.1-10.9,0.8-16.1c0-0.4-0.6-0.4-0.6,0c-0.4,4.2-0.6,8.4-0.9,12.4c-0.3,4.3-0.9,7.5-5.7,8.1
				c-3.5,0.4-9,1.3-12.5,0.6c-2.9-0.5-4.3-4.8-6.1-7.2c-2-2.8-4.4-5.3-6-8.5C156.3,78.1,156,78.2,156.2,78.3L156.2,78.3z"/>
		</g>
	</g>
	<g>
		<g>
			<path class="st1" d="M112.8,233.7c-2.4,6-3.9,11.9-4.1,18.4c-0.1,7.2,2.5,14.4,1,21.7c-0.1,0.8,1,1.1,1.1,0.4
				c1.8-6,0.3-11.4-0.4-17.4c-0.8-7.7,0.3-15.5,2.5-22.8C113.4,233.5,113,233.4,112.8,233.7L112.8,233.7z"/>
		</g>
	</g>
	<g>
		<g>
			<path class="st1" d="M109.7,273.6c0.5,4.6-1.3,8.9-0.9,13.4c0.3,3,1.8,5.8,2.5,8.9c2.8,9.2,1.9,19.1,0.4,28.5
				c-2.5,15.7-7.3,31.7-3.2,47.5c0.3,0.9,1.6,0.5,1.5-0.4c-3.9-17.5,1.9-34.6,4.1-51.8c0.9-7.5,1.1-15.1-0.8-22.4
				c-1-4.1-3.3-7.9-3.3-12.2c0-4.1,1.1-7.6,0-11.7C110.2,273.2,109.7,273.3,109.7,273.6L109.7,273.6z"/>
		</g>
	</g>
	<g>
		<g>
			<path class="st1" d="M288.7,238.9c2.2,20.8,0.9,41.7-1.3,62.5c-0.1,0.9,1.4,1,1.5,0.3c3.5-20.8,2.8-41.8,0.1-62.6
				C289.1,238.6,288.7,238.6,288.7,238.9L288.7,238.9z"/>
		</g>
	</g>
	<g>
		<g>
			<path class="st1" d="M288.6,298.2c-1.4,13.8-0.9,27.5-0.6,41.3c0.3,13.7-0.4,2.9,0.4,16.5c0,1,1.6,1,1.6,0
				c0.5-27.5-0.7-30.3-0.7-57.8C289.2,297.8,288.7,297.8,288.6,298.2L288.6,298.2z"/>
		</g>
	</g>
	<g>
		<g>
			<path class="st1" d="M66.1,272.7c-5.1,18.4,1.8,36.7,0.3,55.2c-0.9,10.8-4.8,21.2-6.7,31.8c-1.8,9.6-3.2,19.9-2.4,29.6
				c0.1,0.9,1.1,0.8,1.3,0c1-10.6,1.4-21,3.5-31.5c1.9-9.2,5.1-18.1,6.1-27.5c2.3-19.3-5.4-38.3-1.6-57.5
				C66.5,272.6,66.2,272.4,66.1,272.7L66.1,272.7z"/>
		</g>
	</g>
	<g>
		<g>
			<path class="st1" d="M338.7,280.3c-1.5,7.9,0.4,14.9,0.9,22.8c0.6,9.9-2.4,19.4-4.8,28.8c-2.3,8.9-3.3,11.1-0.6,10.1
				c2.5-9.8,5.8-19.6,7.1-29.6c1.3-10.8-3-21.3-1.9-31.9C339.2,280,338.7,279.9,338.7,280.3L338.7,280.3z"/>
		</g>
	</g>
	<g>
		<g>
			<path class="st1" d="M166.4,97.4c0.9,2.3,1.3,4.7-1.5,5.4c-0.3,0.1-0.1,0.5,0.1,0.5c1.3-0.3,2.3-0.8,2.5-2.2
				c0.4-1.4-0.3-2.8-0.9-4.1C166.7,97.1,166.3,97.2,166.4,97.4L166.4,97.4z"/>
		</g>
	</g>
	<g>
		<g>
			<path class="st1" d="M150.9,120.3c0.6-0.5,1.3-1,2-1.3c1.3-0.5,2.2,0,3.3,0.1c1.3,0.1,2.4-0.1,3.5-0.8c0.3-0.1,0-0.6-0.3-0.5
				c-1.3,0.6-2.5,0.8-3.9,0.4c-0.6-0.1-1.3-0.4-1.9-0.3c-1.3,0.1-2.2,1.3-2.9,2C150.6,120.2,150.7,120.4,150.9,120.3L150.9,120.3z"
				/>
		</g>
	</g>
	<g>
		<g>
			<path class="st1" d="M159,118.8c1.8-0.8,4.9-0.5,7-0.5s3.8,1,5.8,1c0.1,0,0.1-0.3,0-0.3c-2.5-0.3-4.6-1.6-7.2-1.4
				c-2,0.1-3.9-0.4-5.7,0.9C158.6,118.6,158.7,118.9,159,118.8L159,118.8z"/>
		</g>
	</g>
	<g>
		<g>
			<path class="st1" d="M150.1,121.6c0.4,2.2,1.1,3.4,3.3,3.5c0.9,0,1.6-0.1,2.4-0.4c1.6-0.5,2.7-0.8,4.3-0.5c0.3,0,0.3-0.3,0-0.4
				c-2-0.3-3,0.1-4.9,0.6c-0.8,0.3-1.5,0.3-2.4,0.1c-1.6-0.3-2.2-1.8-2.4-3.2C150.3,121.3,150.1,121.3,150.1,121.6L150.1,121.6z"/>
		</g>
	</g>
	<g>
		<g>
			<path class="st1" d="M171.9,120c-1.5,0.5-2.7,1.5-4.1,2.3c-1.9,1.1-3.8,1.6-6.1,1.5c-0.3,0-0.3,0.4,0,0.4
				c1.9,0.3,3.5,0.3,5.3-0.6s3-2.5,4.9-3.4C172,120.2,172,119.9,171.9,120L171.9,120z"/>
		</g>
	</g>
	<g>
		<g>
			<path class="st1" d="M150.1,119c-1-1.4,0.1-2.4,1.1-3.3c0.8-0.8,1.3-1.5,2.5-1.6c0.1,0,0.1-0.3,0-0.3c-0.6-0.1-1.3,0-1.8,0.4
				c-0.4,0.3-0.5,0.5-0.8,0.8c-0.4,0.4-0.8,0.5-1.1,0.9c-0.9,1-1.1,2.3-0.1,3.3C150.1,119.3,150.2,119.1,150.1,119L150.1,119z"/>
		</g>
	</g>
	<g>
		<g>
			<path class="st1" d="M155,114.2c0.9,0.3,1.9,0.1,2.7-0.5c0.1-0.1,0-0.4-0.3-0.3c-0.8,0.4-1.5,0.6-2.4,0.5
				C154.9,114.1,154.9,114.2,155,114.2L155,114.2z"/>
		</g>
	</g>
	<g>
		<g>
			<path class="st1" d="M158.7,113.4c3.9-0.8,6.1,0.9,9.2,2.9c1.4,0.9,2.9,1.4,4.3,2.3c0.1,0.1,0.3-0.1,0.1-0.3
				c-0.8-0.6-1.8-1-2.7-1.5c-1.3-0.6-2.2-1.5-3.3-2.3c-2.5-1.6-4.8-2.2-7.7-1.3C158.6,113.4,158.6,113.6,158.7,113.4L158.7,113.4z"
				/>
		</g>
	</g>
	<g>
		<g>
			<path class="st1" d="M222.2,91.5c0.5-0.3,1.3-0.5,1.9-0.5c0.5,0,1,0.4,1.5,0.5c0.5,0.1,1,0.3,1.5,0.3c1.6-0.1,2.2-1.3,3.2-2.4
				c0.3-0.4-0.1-0.9-0.5-0.6c-0.5,0.4-0.9,0.8-1.3,1.1c-1,1-1.8,1.3-3.2,1c-1.3-0.3-2-0.1-3.2,0.5C222.1,91.4,222.1,91.5,222.2,91.5
				L222.2,91.5z"/>
		</g>
	</g>
	<g>
		<g>
			<path class="st1" d="M227.9,76.7c-0.5-3.4,3.2-6.2,6.5-5.4c2,0.5,3.9,2.7,5.2,4.2c0.4,0.4,0.9-0.1,0.8-0.5
				c-1.5-3-4.7-5.2-8.1-4.3c-2.9,0.8-5.2,3-4.6,6.2C227.6,77,228,76.8,227.9,76.7L227.9,76.7z"/>
		</g>
	</g>
	<g>
		<g>
			<path class="st1" d="M240.2,77c0.1,2.2,0.6,4.2,0,6.3c-0.8,2.4-2.7,4.3-4.3,6.1c-0.1,0.1,0,0.3,0.1,0.1c2-1.8,4.1-3.8,5.1-6.3
				c1-2.3,0.5-4.2-0.4-6.3C240.7,76.6,240.2,76.6,240.2,77L240.2,77z"/>
		</g>
	</g>
	<g>
		<g>
			<path class="st1" d="M226,87.2c-0.1-0.8-0.3-1.6,0.1-2.3c0.4-0.6,1.6,0.3,2,0.6c0.4,0.3,0.6-0.3,0.4-0.5c-0.5-0.6-2-1.6-2.8-0.9
				c-0.8,0.8-0.5,2.2-0.1,3.2C225.7,87.3,226,87.3,226,87.2L226,87.2z"/>
		</g>
	</g>
	<g>
		<g>
			<path class="st1" d="M228.4,78.7c-0.6,0.5-0.3,1.1,0,1.8c0.3,0.5,0.6,1,1,1.4c0.8,0.8,1,1.4,1.1,2.4c0,0.3,0.4,0.3,0.5,0
				c0-0.8,0-1.5-0.5-2.2c-0.5-0.5-2.9-2.3-1.9-3.3C228.8,78.9,228.5,78.6,228.4,78.7L228.4,78.7z"/>
		</g>
	</g>
	<g>
		<g>
			<path class="st1" d="M231.1,75.8c3.2,1.3,3.2,5.2,2.4,8c-0.1,0.3,0.4,0.5,0.5,0.3c1.4-2.8,0.6-7.6-2.8-8.4
				C230.9,75.4,230.9,75.7,231.1,75.8L231.1,75.8z"/>
		</g>
	</g>
	<g>
		<g>
			<path class="st1" d="M231.9,87.3c0.4-0.8,1.5-0.9,2.3-1.1c0.8-0.3,1.3-0.6,1.5-1.4c0.1-0.4-0.5-0.9-0.8-0.5c-1,1.1-2.9,1-3.3,2.7
				C231.4,87.5,231.8,87.6,231.9,87.3L231.9,87.3z"/>
		</g>
	</g>
	<g>
		<g>
			<path class="st1" d="M224,90c0.6,0.1,1.4,0.1,2-0.3c0.5-0.3,0.9-0.9,0.6-1.5c-0.1-0.3-0.5-0.3-0.5,0.1c0.1,1.3-1.1,1.4-2,1.4
				C223.8,89.7,223.8,90,224,90L224,90z"/>
		</g>
	</g>
	<path class="st1" d="M129.7,72.4c0,0,3.9-1.1,21.8-2.3c17.7-1.1,31.7-1.9,31.7-1.9s1.1-0.3,2.7-0.3c0.3,0,1.1,0.4,1.4,0.4
		c1,0,1.6,0,2.8,0.1c3.4,0.1,40.9-2.3,40.9-2.3l-4.4,3.5l-36.9,1.9c0,0-1.5,0.4-1.6,2.7c-0.1,2.3-0.5,16.9-1.8,17.7
		c-1.3,0.9-15.6,3.4-17.4,2.4c-1.8-1.1-1,0.9-4.6-4.2c-3.5-5.1-7.3-11.9-8.7-12.8c-1.4-0.9-2,0.4-3,3.5c-1,3.2-4.8,14.2-4.8,14.2
		L143,96c0,0-6,0.8-6.6,0.4c-0.3-0.1-2.8-3.8-4.4-8.1c-1.9-4.9-2.9-10.6-3.2-11.4C128.4,75.6,128.1,73,129.7,72.4z"/>
	<g>
		<g>
			<g>
				<path class="st1" d="M161.8,103.7c-0.9-0.5-1.6-1.4-2.8-1.3c-1,0-2,0.5-2.8,1c-0.3,0.1-0.3,0.6,0.1,0.8c1.5,0.4,3,0.4,4.6,0.1
					c0.5-0.1,0.3-0.8-0.3-0.8c-1.4,0.3-2.8,0.3-4.2-0.1c0,0.3,0,0.5,0.1,0.8c0.6-0.4,1.5-0.9,2.3-1c1.1-0.3,1.9,0.5,2.9,0.9
					C161.8,104.1,162,103.8,161.8,103.7L161.8,103.7z"/>
			</g>
		</g>
		<g>
			<g>
				<path class="st1" d="M158.5,103.8c0.6,0,1.1,0.1,1.8,0c0.5-0.1,0.4-0.6,0-0.8c-0.6-0.3-1.3-0.1-1.9,0.1
					C158,103.2,158,103.8,158.5,103.8L158.5,103.8z"/>
			</g>
		</g>
		<g>
			<g>
				<path class="st1" d="M157.7,103.8c0.3,0,0.5,0,0.8,0c0.3,0,0.3-0.4,0-0.4c-0.3,0-0.5,0-0.8,0
					C157.3,103.3,157.3,103.8,157.7,103.8L157.7,103.8z"/>
			</g>
		</g>
		<g>
			<g>
				<path class="st1" d="M160.2,103.7c0.3,0.1,0.5,0.3,0.8,0.3c0.1,0,0.3-0.3,0.1-0.4c-0.3-0.3-0.5-0.4-0.8-0.4
					C160,103.1,159.9,103.6,160.2,103.7L160.2,103.7z"/>
			</g>
		</g>
		<g>
			<g>
				<path class="st1" d="M160.2,104.2c0.4,0,1,0,1.4-0.3c0.1-0.1,0-0.3-0.1-0.3c-0.4,0.1-0.8,0.1-1.3,0.3
					C160,103.9,160,104.2,160.2,104.2L160.2,104.2z"/>
			</g>
		</g>
	</g>
	<g>
		<g>
			<path class="st1" d="M110.9,295.8c-1.5,5.8-1.8,12-3.2,18c-1.1,4.7-2.3,9.2-2.9,13.9c-1.4,8.9-2.5,17.7-3.4,26.6
				c-1.4,13,1.7,19.5-4.7,31.4c-0.4,0.6,0.5,1.3,1,0.8c3.8-4.2,3.2-5.4,4.1-10.7c1.1-7.5,0-11.1,0.6-18.6c0.9-9.4,2.8-18.8,4.3-28
				c1.9-10.6,6.8-22.4,4.8-33.3C111.5,295.5,110.9,295.5,110.9,295.8L110.9,295.8z"/>
		</g>
	</g>
	<g>
		<g>
			<path class="st1" d="M291.1,294.2c-0.8,10.4,2.8,20.1,3.3,30.4c0.3,5.2-1.5,12.3,2.3,16.5c0.5,0.5,1.4-0.1,1-0.8
				c-3.8-5.1-1.9-14.2-2.5-20.1c-1-8.9-3.7-17.1-3.5-26.1C291.5,294,291.1,294,291.1,294.2L291.1,294.2z"/>
		</g>
	</g>
	<g>
		<g>
			<path class="st1" d="M290.5,342.1c4.3-0.5,8.7-0.4,13-0.1c0.6,0,0.8-1,0.1-1.1c-4.6-0.8-8.9-0.4-13.3,0.6
				C290.1,341.6,290.1,342.1,290.5,342.1L290.5,342.1z"/>
		</g>
	</g>
	<g>
		<path class="st2" d="M185.3,82.6L154.8,70l-12.6,30.5C154.3,91.2,169.1,84.7,185.3,82.6z"/>
		<path class="st2" d="M197.1,115.9c-31.2,0-56.7,25.3-56.7,56.7s25.3,56.7,56.7,56.7s56.7-25.3,56.7-56.7S228.5,115.9,197.1,115.9z
			 M220.3,195.7h-47.6V150h47.6V195.7z"/>
		<path class="st2" d="M252.3,100.5L239.8,70l-30.5,12.6C225.3,84.7,239.9,91.2,252.3,100.5z"/>
		<path class="st2" d="M269.1,117.5c9.3,12.4,15.8,27,17.9,43.2l12.6-30.5L269.1,117.5z"/>
		<path class="st2" d="M287,184.5c-2.1,16.2-8.4,30.9-17.9,43.2l30.5-12.6L287,184.5z"/>
		<path class="st2" d="M209.1,262.4l30.5,12.6l12.6-30.5C239.9,254,225.3,260.3,209.1,262.4z"/>
		<path class="st2" d="M142.1,244.5l12.6,30.5l30.5-12.6C169.1,260.3,154.3,254,142.1,244.5z"/>
		<path class="st2" d="M107.2,184.5L94.6,215l30.5,12.6C115.8,215.3,109.3,200.7,107.2,184.5z"/>
		<path class="st2" d="M125.1,117.5L94.6,130l12.6,30.5C109.3,144.5,115.8,129.7,125.1,117.5z"/>
	</g>
</g>
</svg>
